<?xml version="1.0" standalone="no"?>
<!DOCTYPE svg PUBLIC "-//W3C//DTD SVG 20010904//EN"
 "http://www.w3.org/TR/2001/REC-SVG-20010904/DTD/svg10.dtd">
<svg version="1.0" xmlns="http://www.w3.org/2000/svg"
 width="566.000000pt" height="566.000000pt" viewBox="0 0 566.000000 566.000000"
 preserveAspectRatio="xMidYMid meet">
<metadata>
Created by potrace 1.14, written by Peter Selinger 2001-2017
</metadata>
<g transform="translate(0.000000,566.000000) scale(0.100000,-0.100000)"
fill="#000000" stroke="none">
<path d="M2800 5569 c-1 -61 -2 -69 -10 -69 -5 0 -14 9 -20 20 -6 11 -15 18
-19 15 -5 -2 -11 5 -15 17 -5 22 -6 22 -20 3 -9 -11 -16 -26 -16 -34 0 -9 -4
-10 -12 -4 -17 13 -59 14 -73 3 -7 -5 -19 2 -34 20 l-23 29 -21 -20 c-20 -19
-22 -19 -34 -3 -7 10 -14 16 -15 13 -2 -2 -8 -13 -14 -24 -8 -14 -22 -20 -48
-20 -22 0 -41 -6 -47 -15 -8 -13 -11 -13 -20 3 -10 17 -13 16 -30 -12 -19 -32
-39 -41 -39 -18 -1 7 -6 4 -14 -6 -12 -15 -18 -17 -35 -7 -12 6 -26 8 -31 5
-5 -3 -11 -1 -15 5 -10 16 -28 12 -21 -5 3 -8 1 -15 -4 -15 -5 0 -12 -10 -16
-22 -6 -20 -8 -20 -19 -5 -12 16 -13 16 -19 -5 -5 -19 -8 -20 -16 -8 -8 13
-11 12 -24 -5 -9 -11 -16 -16 -16 -12 0 5 -7 1 -16 -7 -8 -9 -21 -16 -27 -16
-7 0 -6 4 3 10 8 5 11 12 7 16 -4 4 -16 -1 -27 -11 -11 -10 -20 -15 -20 -11 0
3 -10 0 -23 -9 -13 -8 -37 -13 -55 -11 -30 4 -45 -8 -20 -16 6 -2 8 -10 4 -16
-5 -9 -13 -9 -26 -2 -24 13 -40 13 -20 0 12 -8 10 -10 -10 -10 -15 0 -32 6
-39 13 -11 10 -12 7 -7 -14 4 -18 1 -31 -10 -39 -8 -7 -13 -19 -10 -27 7 -18
-4 -16 -26 4 -11 9 -18 11 -18 5 0 -7 -7 -12 -15 -12 -8 0 -24 -13 -37 -30
-12 -16 -26 -30 -31 -30 -6 0 -26 -16 -45 -36 -27 -28 -40 -34 -58 -30 -14 4
-24 2 -24 -4 0 -5 7 -10 15 -10 8 0 15 -6 15 -13 0 -17 -73 -42 -91 -32 -8 3
-4 -2 7 -12 l22 -19 -27 -12 c-29 -13 -81 -55 -81 -66 0 -9 -38 -61 -67 -94
-13 -14 -23 -31 -23 -38 0 -8 -11 -16 -25 -20 -14 -3 -24 -11 -23 -18 2 -9
-45 -66 -128 -152 -15 -16 -18 -26 -11 -33 8 -8 2 -20 -19 -43 -54 -58 -82
-102 -94 -148 -6 -25 -13 -53 -16 -62 -7 -22 19 -24 36 -3 7 8 18 15 24 15 6
0 -2 -12 -19 -27 -31 -27 -57 -86 -49 -108 3 -7 -4 -31 -15 -54 -12 -22 -21
-55 -21 -73 0 -73 -8 -136 -20 -159 -19 -34 -30 -90 -17 -82 7 4 7 0 1 -13 -5
-10 -9 -44 -10 -74 0 -30 -2 -57 -4 -60 -1 -3 -4 -34 -5 -70 -2 -67 -16 -89
-48 -77 -13 5 -15 17 -10 64 l5 58 -45 -50 c-36 -40 -51 -50 -81 -52 -20 -1
-36 2 -36 8 0 5 -8 9 -19 9 -10 0 -32 7 -47 15 -16 8 -37 15 -47 15 -11 0 -21
9 -24 20 -8 28 -17 25 -53 -17 -20 -24 -34 -33 -37 -25 -3 6 -13 12 -24 12
-10 0 -19 3 -19 8 0 4 -14 7 -32 7 -35 0 -51 24 -21 31 11 3 28 20 38 37 l18
32 -24 -22 c-17 -15 -32 -20 -52 -16 -25 5 -27 9 -27 52 1 25 -3 62 -8 81 l-8
35 -22 -35 c-13 -19 -21 -42 -19 -51 4 -14 0 -15 -25 -5 -18 7 -31 20 -34 36
-3 14 -10 36 -16 50 -11 23 -12 23 -16 5 -2 -11 -9 -23 -16 -27 -8 -5 -7 -8 3
-8 8 0 11 -7 8 -20 -5 -19 33 -53 60 -53 11 0 40 -41 82 -117 5 -8 13 -31 20
-50 15 -47 2 -57 -46 -35 -37 18 -37 18 -15 33 12 8 22 19 22 24 0 10 -41 -17
-78 -52 -17 -16 -26 -19 -36 -11 -10 8 -17 7 -26 -4 -19 -23 -33 -18 -26 11
l7 25 -23 -20 c-25 -24 -39 -26 -56 -9 -8 8 -11 -340 -12 -1455 0 -807 2
-1467 4 -1467 2 0 42 18 88 40 98 47 224 77 362 85 92 6 105 9 190 52 88 45
95 47 201 52 l110 6 14 30 c18 40 79 134 105 163 11 12 32 45 46 72 83 161
115 219 137 248 22 29 24 37 14 59 -6 13 -8 29 -5 35 4 6 0 14 -7 19 -8 4 -14
25 -15 46 0 21 -6 70 -12 108 -6 39 -13 93 -15 122 -2 30 -10 60 -20 70 -9 10
-26 41 -38 68 -12 28 -33 63 -46 78 -23 29 -89 161 -113 227 -35 99 -49 168
-56 270 -4 64 -13 113 -29 150 -12 30 -28 77 -34 104 -6 27 -23 62 -37 79 -19
23 -24 36 -19 58 6 26 -12 89 -25 89 -3 0 -3 21 -1 48 8 107 95 149 131 62 7
-16 16 -30 20 -30 4 0 12 -12 19 -26 9 -21 16 -25 36 -20 24 6 25 4 25 -34 0
-22 5 -40 10 -40 6 0 10 -17 10 -37 l1 -38 17 28 c9 15 21 27 26 27 6 0 5 -5
-2 -12 -16 -16 -15 -118 3 -198 17 -79 17 -80 5 -80 -5 0 -10 9 -10 19 0 13
-6 19 -20 18 -16 -1 -18 -6 -13 -27 6 -22 4 -23 -10 -12 -13 11 -15 10 -10 -8
4 -13 0 -26 -8 -31 -12 -8 -12 -11 1 -19 13 -8 12 -10 -2 -10 -12 0 -18 -8
-18 -25 0 -14 4 -25 9 -25 5 0 12 -12 16 -27 7 -31 39 -61 78 -75 21 -8 27
-16 27 -38 0 -16 7 -30 15 -34 12 -4 15 3 15 34 0 21 -5 42 -11 46 -6 4 -9 19
-5 36 4 19 0 40 -11 58 -13 23 -14 32 -4 44 16 19 12 188 -4 220 -7 14 -9 31
-3 45 4 13 5 27 2 32 -4 8 -14 169 -14 234 0 11 0 31 -1 45 -1 14 -2 50 -3 82
-1 31 -4 54 -7 52 -17 -10 -31 28 -24 63 15 72 13 127 -5 163 -15 29 -18 60
-16 187 0 84 -2 145 -7 135 -4 -10 -5 -1 -3 21 4 33 3 37 -9 27 -12 -10 -15
-9 -15 8 0 11 6 27 14 35 11 11 12 17 3 27 -9 10 -9 14 0 17 7 2 9 11 6 19 -3
8 0 21 7 29 10 12 10 18 1 29 -10 11 -7 17 10 30 13 8 20 19 16 22 -4 4 -19
-3 -33 -17 -22 -21 -24 -21 -18 -4 4 11 11 25 15 30 14 19 70 168 64 173 -3 3
-5 -1 -5 -9 0 -12 -2 -12 -9 0 -7 10 -3 23 10 39 12 16 17 33 13 45 -4 11 -1
23 7 28 8 4 14 24 14 44 0 37 -4 42 -22 24 -6 -6 -17 -8 -23 -4 -9 6 -7 11 8
19 20 11 20 14 7 39 -18 36 0 35 23 -1 10 -17 23 -27 32 -25 11 3 12 2 3 -4
-17 -12 -21 -55 -5 -60 7 -3 12 4 12 19 1 29 21 56 38 51 6 -3 12 1 12 9 0 7
9 24 19 37 10 14 17 31 14 38 -3 7 2 16 11 19 9 3 16 13 16 21 0 8 13 33 29
56 15 23 26 48 23 56 -3 10 0 12 14 7 10 -4 15 -4 12 0 -9 8 9 44 22 44 14 0
75 64 72 77 -1 6 3 15 9 19 8 5 10 3 4 -7 -4 -8 8 1 26 18 69 67 101 93 115
93 18 0 84 59 84 75 0 7 12 16 27 20 29 7 70 35 112 77 l28 27 31 -19 c24 -15
30 -16 25 -5 -3 8 0 15 6 15 6 0 11 -4 11 -10 0 -5 5 -10 10 -10 6 0 10 9 10
20 0 11 4 20 10 20 5 0 7 -7 4 -15 -4 -8 -2 -15 2 -16 5 0 16 -2 25 -4 8 -1
22 3 31 9 15 11 15 15 2 40 -21 42 -17 55 9 26 12 -14 33 -25 47 -26 14 -1 33
-4 43 -9 12 -5 17 -3 17 9 0 11 9 16 29 16 23 0 28 4 26 23 -2 19 2 22 34 22
20 0 39 -4 43 -10 5 -6 8 -5 8 3 0 6 7 12 16 12 8 0 12 5 9 10 -3 6 0 10 9 10
8 0 17 -6 19 -12 3 -8 6 -6 6 4 1 10 11 22 23 29 17 9 20 9 16 -3 -9 -23 35
-16 49 7 11 19 12 19 22 -5 10 -24 10 -24 16 -4 10 32 47 20 39 -12 -5 -18 -2
-24 9 -24 9 0 31 -13 49 -30 18 -16 40 -30 50 -30 10 0 18 -7 18 -15 0 -9 7
-15 17 -13 10 2 19 -4 21 -14 4 -23 -25 -24 -56 -2 -32 22 -36 13 -13 -29 11
-19 19 -37 18 -39 -1 -2 3 2 9 9 8 9 17 6 40 -12 20 -16 33 -20 41 -13 8 6 18
3 32 -11 24 -24 34 -6 14 26 -10 14 -11 23 -4 28 6 3 11 5 12 3 0 -2 2 -11 4
-21 5 -26 11 -30 34 -22 14 4 21 15 21 31 0 31 16 31 24 -1 7 -27 26 -34 26
-10 0 8 5 15 10 15 13 0 13 -17 1 -25 -17 -10 -8 -45 11 -45 10 0 18 -7 18
-15 0 -8 7 -15 15 -15 8 0 18 0 22 -1 4 0 9 4 11 11 2 6 0 10 -5 9 -27 -5 -30
2 -18 37 7 20 20 41 29 46 25 14 68 1 64 -20 -2 -16 29 -62 43 -62 10 0 18 39
9 42 -15 6 -22 48 -8 48 10 0 9 3 -2 10 -13 9 -13 10 0 10 24 0 44 -16 31 -24
-15 -10 -14 -22 2 -24 6 0 24 -3 39 -5 17 -3 33 2 40 11 11 13 9 14 -11 7 -17
-5 -22 -4 -19 6 3 8 15 13 26 13 12 -1 22 3 22 7 0 5 7 9 16 9 8 0 12 5 9 10
-3 6 -1 10 4 10 6 0 11 -4 11 -10 0 -5 11 -10 24 -10 18 0 27 -8 35 -30 5 -16
13 -30 16 -30 10 0 -7 55 -21 66 -8 6 -11 14 -8 17 3 3 1 15 -6 26 -7 14 -7
21 0 21 5 0 10 5 10 11 0 5 -4 8 -8 5 -14 -9 -35 12 -29 28 5 14 32 21 60 17
13 -2 7 20 -7 25 -8 3 -12 12 -9 20 7 18 23 18 23 -1 0 -8 9 -19 19 -25 11 -5
27 -17 36 -26 21 -21 33 -9 17 16 -10 17 -10 20 3 20 8 0 19 -9 26 -21 7 -15
17 -19 32 -15 11 3 28 0 36 -7 10 -8 13 -8 8 0 -5 7 0 9 13 6 12 -3 18 -8 15
-11 -3 -3 9 -18 26 -33 20 -18 26 -28 17 -32 -21 -7 -4 -17 20 -10 17 4 21 11
17 27 -4 17 -2 16 7 -4 7 -14 21 -33 31 -43 15 -15 16 -21 6 -33 -8 -10 -8
-14 0 -14 6 0 11 4 11 9 0 11 59 20 66 10 2 -4 -2 -9 -8 -12 -20 -7 6 -30 28
-25 11 2 28 -5 39 -14 10 -10 25 -16 32 -14 7 3 13 1 13 -4 0 -6 5 -10 11 -10
17 0 98 -70 104 -91 5 -15 10 -17 26 -9 17 10 23 7 20 -12 0 -3 17 -24 39 -46
38 -37 53 -61 30 -47 -5 3 -10 1 -10 -4 0 -6 6 -11 14 -11 16 0 87 -83 90
-107 2 -9 9 -21 17 -27 25 -19 69 -82 62 -89 -3 -4 -1 -7 6 -7 7 0 10 -4 7 -9
-3 -5 1 -14 9 -21 17 -14 21 -35 5 -25 -5 3 -10 2 -10 -2 0 -5 9 -14 20 -21
11 -7 20 -21 20 -31 0 -11 8 -27 17 -37 10 -9 32 -47 50 -83 17 -36 32 -60 32
-53 1 6 6 12 12 12 7 0 9 -11 6 -29 -5 -24 -2 -31 13 -36 11 -4 25 -16 31 -27
10 -18 9 -20 -7 -14 -18 6 -18 5 -2 -7 10 -8 15 -17 11 -20 -3 -4 -1 -7 6 -7
7 0 10 -4 6 -9 -3 -5 2 -16 10 -25 9 -8 18 -32 21 -53 3 -21 7 -49 9 -63 3
-25 8 -249 6 -283 -1 -10 -6 -15 -12 -12 -7 5 -9 -10 -5 -49 3 -34 1 -56 -5
-56 -6 0 -7 -5 -3 -12 5 -8 11 -6 19 6 11 14 13 11 18 -21 4 -20 3 -40 -1 -43
-4 -3 -6 -21 -4 -40 6 -59 3 -162 -6 -174 -8 -11 -8 -194 1 -496 6 -250 -11
-468 -37 -453 -6 4 -5 -1 3 -10 9 -11 10 -17 2 -17 -6 0 -11 -7 -11 -15 0 -18
-20 -20 -20 -2 -1 6 -7 1 -15 -13 -11 -19 -14 -21 -15 -7 0 9 -4 17 -9 17 -5
0 -8 -11 -7 -25 0 -14 5 -25 9 -25 5 0 6 -4 2 -9 -6 -10 13 -26 30 -26 6 0 11
-11 12 -25 1 -14 4 -42 6 -62 2 -21 1 -38 -2 -38 -11 0 -29 -70 -19 -76 13 -8
-10 -33 -31 -31 -9 0 -17 9 -17 19 0 12 4 14 10 8 6 -6 17 -10 25 -10 14 0 14
2 2 9 -12 8 -13 14 -3 36 10 21 9 27 -3 32 -10 3 -12 10 -7 17 9 12 8 53 -2
63 -3 3 -6 -1 -6 -10 0 -19 -25 -23 -35 -7 -4 6 -11 8 -16 5 -5 -4 3 -17 19
-30 23 -20 25 -26 13 -37 -12 -11 -13 -10 -7 6 5 15 4 17 -7 8 -10 -9 -21 -4
-46 19 -18 16 -36 27 -39 24 -3 -3 10 -20 30 -38 36 -32 53 -62 49 -84 -1 -7
2 -21 8 -31 7 -14 4 -20 -15 -29 -13 -6 -24 -7 -24 -2 0 5 5 9 10 9 6 0 6 7
-1 19 -8 11 -19 16 -32 13 -16 -4 -18 -11 -13 -43 4 -25 2 -39 -4 -39 -6 0 -8
6 -4 13 6 9 3 8 -8 -1 -14 -11 -21 -11 -40 -1 -14 8 -18 14 -10 17 20 6 14 28
-12 46 -18 11 -26 12 -29 3 -2 -8 -9 -7 -21 6 -20 19 -37 22 -52 7 -6 -6 -28
-12 -50 -13 -40 -2 -51 -18 -31 -45 7 -8 5 -12 -7 -12 -9 0 -16 5 -16 10 0 6
-6 10 -14 10 -10 0 -14 10 -12 34 2 23 -2 37 -11 40 -25 10 -32 7 -35 -16 -2
-18 -11 -24 -37 -26 -36 -4 -58 9 -46 28 6 9 9 9 15 0 11 -18 41 -4 34 15 -3
8 -11 15 -18 15 -6 0 -23 11 -36 23 -18 17 -32 22 -45 17 -20 -7 -20 -7 0 -12
11 -2 1 -4 -22 -4 -29 0 -44 5 -46 16 -3 11 -6 10 -13 -6 -9 -21 -10 -20 -44
14 -29 29 -31 32 -8 19 23 -15 27 -15 32 -1 8 22 7 26 -4 19 -5 -3 -10 -1 -10
4 0 6 -6 11 -12 11 -18 1 -116 50 -100 50 7 0 0 13 -16 28 -16 15 -27 33 -24
40 2 8 -10 12 -37 12 -23 0 -41 -4 -41 -10 0 -5 -5 -10 -10 -10 -6 0 -8 11 -4
25 5 21 3 25 -12 23 -42 -5 -114 14 -114 30 0 14 -2 14 -12 -1 -7 -9 -28 -18
-47 -20 -24 -3 -37 -11 -42 -26 -5 -11 -13 -21 -19 -21 -7 0 -5 9 4 22 10 14
13 31 9 47 -5 22 -4 24 9 14 8 -7 18 -10 21 -6 4 3 7 1 7 -7 0 -9 3 -10 14 -1
11 9 15 9 19 -1 4 -14 37 55 37 78 0 15 16 19 22 5 2 -4 30 -12 63 -16 l60 -7
-27 26 c-16 14 -28 31 -28 38 1 10 4 9 13 -2 7 -8 22 -20 34 -27 18 -10 22
-10 25 3 2 13 7 12 25 -5 12 -12 25 -17 28 -12 3 6 -2 14 -11 19 -12 7 -15 15
-9 28 7 17 9 17 12 2 4 -16 31 -27 93 -35 19 -3 40 -11 46 -19 6 -7 14 -11 18
-7 4 4 4 0 0 -10 -4 -12 -10 -15 -18 -7 -7 5 -30 17 -52 25 -35 14 -37 14 -20
0 11 -8 25 -15 32 -15 6 0 11 -7 10 -17 0 -10 10 -19 27 -24 24 -6 27 -5 27
17 0 14 4 23 9 19 5 -3 13 0 17 6 4 8 3 9 -4 5 -7 -4 -12 -1 -12 9 0 9 -4 13
-10 10 -6 -3 -7 1 -4 9 3 9 2 16 -2 17 -5 0 -20 3 -34 5 -14 3 -33 6 -42 7
-10 2 -21 7 -25 11 -5 4 9 5 30 2 26 -4 37 -2 37 7 0 9 2 9 8 -1 5 -7 29 -15
53 -17 24 -3 60 -8 79 -11 59 -11 130 -12 130 -3 0 14 28 11 33 -3 4 -10 6
-10 6 0 1 6 6 12 12 12 5 0 8 -4 5 -9 -4 -5 3 -7 15 -4 16 5 18 8 7 15 -17 11
120 5 147 -7 18 -8 19 -7 6 8 -7 9 -17 17 -21 17 -5 0 -30 9 -56 21 -34 14
-77 21 -144 24 -52 2 -104 5 -114 5 -12 1 -15 5 -10 10 14 14 178 15 274 1
108 -16 145 -32 192 -83 21 -23 38 -36 38 -30 0 7 -5 12 -12 12 -6 0 -9 3 -6
6 3 3 -4 16 -16 29 -11 13 -34 39 -51 58 -17 21 -35 33 -44 29 -9 -3 -12 -1
-7 7 6 9 0 10 -21 6 -22 -5 -25 -4 -13 4 13 10 12 13 -5 26 -18 14 -17 15 19
11 21 -3 46 -12 56 -21 9 -8 20 -15 23 -15 18 0 149 -137 164 -171 18 -38 42
-48 51 -20 3 10 0 12 -11 8 -17 -6 -47 45 -47 81 0 10 -26 43 -57 73 -31 30
-56 55 -55 57 1 1 2 8 2 15 0 8 -3 8 -9 -2 -7 -11 -13 -10 -32 9 -13 12 -33
26 -44 31 -14 6 -5 7 25 3 25 -3 54 -6 65 -5 11 1 36 3 55 4 28 2 35 6 35 22
0 16 -7 20 -28 18 -15 -1 -27 3 -27 9 0 6 -13 9 -33 5 -18 -3 -43 1 -56 8 -23
12 -22 13 25 24 27 7 69 23 93 35 l43 23 -60 -1 c-33 -1 -58 -4 -55 -8 2 -5 0
-8 -5 -8 -19 0 -10 52 9 57 27 7 24 22 -3 16 l-23 -5 22 20 c18 16 20 21 8 26
-8 3 -12 12 -9 20 3 8 1 17 -5 21 -6 3 -11 15 -11 25 0 10 -6 25 -14 32 -7 8
-16 24 -20 35 -4 14 -12 20 -22 16 -10 -4 -12 0 -8 11 7 19 0 20 -27 5 -11 -5
-17 -14 -14 -20 4 -5 2 -9 -4 -9 -15 0 -25 21 -12 29 6 4 -2 14 -21 25 -17 11
-28 13 -23 6 5 -8 3 -11 -6 -8 -8 3 -14 11 -15 19 -2 34 -5 39 -21 39 -9 0
-25 8 -36 17 -19 17 -20 17 -14 1 4 -12 1 -18 -8 -18 -8 0 -15 4 -15 9 0 5
-11 12 -25 15 -26 7 -35 25 -12 27 6 0 3 4 -8 8 -11 5 -30 5 -43 0 -16 -6 -34
-2 -64 13 -32 17 -62 22 -132 24 -50 2 -93 -1 -96 -6 -9 -14 -50 0 -50 17 0
13 -3 13 -15 3 -12 -10 -16 -8 -25 14 -5 14 -7 34 -3 43 3 12 -1 10 -12 -5
-12 -17 -20 -21 -28 -13 -15 15 -50 14 -41 -1 4 -7 3 -8 -4 -4 -17 10 -15 15
11 26 14 6 17 9 6 9 -12 1 -15 8 -11 26 2 14 0 25 -5 25 -5 0 -9 -12 -8 -27 0
-26 -15 -53 -29 -53 -4 0 -4 11 0 25 4 15 2 25 -5 25 -6 0 -11 -4 -11 -10 0
-5 -7 -10 -16 -10 -9 0 -12 -5 -8 -12 5 -8 2 -9 -12 -3 -10 4 -30 8 -43 8 -17
-1 -20 1 -10 8 10 6 8 8 -8 7 -14 -2 -19 -7 -15 -17 3 -9 1 -12 -6 -7 -6 4
-21 2 -33 -5 -17 -8 -23 -8 -30 2 -6 10 -11 10 -22 1 -7 -7 -17 -9 -20 -5 -4
3 -7 1 -7 -6 0 -8 7 -10 21 -6 16 5 19 4 14 -5 -5 -8 -4 -11 1 -7 15 9 38 -9
29 -22 -5 -9 -14 -8 -32 5 -20 13 -27 13 -33 3 -9 -14 -2 -39 11 -39 5 0 9 -4
9 -10 0 -10 -40 -10 -50 0 -3 3 -19 12 -35 21 -34 18 -55 15 -55 -8 0 -13 -3
-13 -15 -3 -13 11 -13 15 -3 21 8 6 3 9 -17 9 -16 0 -41 -9 -55 -20 -15 -12
-18 -18 -7 -14 9 3 17 1 17 -5 0 -6 7 -11 15 -11 8 0 15 5 15 10 0 6 -5 10
-12 10 -6 0 -8 3 -5 7 4 3 16 -3 27 -14 l19 -21 -32 2 c-18 1 -40 -2 -50 -7
-11 -5 -23 -4 -32 3 -10 9 -14 7 -17 -7 -2 -10 3 -24 12 -31 12 -10 13 -12 0
-10 -16 3 -32 14 -65 44 -13 12 -27 19 -31 15 -4 -3 -2 4 5 16 14 27 14 33 0
33 -5 0 -8 -4 -4 -9 3 -5 1 -12 -4 -15 -11 -7 -25 12 -26 34 0 9 -7 14 -17 12
-10 -2 -18 3 -18 10 0 11 -2 11 -9 0 -4 -7 -14 -12 -21 -10 -8 2 -14 -5 -15
-17 0 -13 -8 -21 -22 -23 -17 -2 -23 -10 -23 -27 0 -33 -10 -56 -22 -49 -5 3
-18 -2 -29 -12 -19 -17 -19 -17 -17 7 2 15 -2 23 -9 21 -7 -1 -13 3 -13 9 0 6
-6 9 -14 6 -8 -3 -20 2 -28 10 -11 15 -11 16 5 10 9 -3 17 -2 17 2 0 15 -33
22 -42 9 -7 -12 -12 -4 -9 15 2 12 -16 8 -28 -7 -6 -7 -22 -11 -36 -8 -14 2
-25 0 -25 -7 0 -5 -7 -8 -16 -4 -9 3 -19 1 -23 -5 -5 -8 -17 -9 -39 -3 -20 6
-30 6 -27 0 4 -5 -1 -9 -9 -9 -8 0 -18 5 -21 10 -7 12 -37 9 -47 -4 -3 -5 -30
-10 -60 -11 -30 -1 -60 -5 -68 -10 -8 -5 -24 -8 -35 -6 -16 2 -17 0 -7 -12 10
-12 5 -17 -33 -31 -25 -10 -63 -16 -86 -15 -30 3 -43 -1 -50 -14 -14 -25 -32
-22 -19 3 6 11 7 20 1 20 -5 0 -12 -8 -15 -17 -6 -14 -9 -15 -15 -4 -7 10 -17
6 -45 -20 -34 -31 -36 -34 -17 -41 26 -9 114 14 136 36 22 22 33 12 12 -12
-10 -11 -13 -23 -8 -31 7 -10 10 -10 13 -1 5 17 48 3 48 -16 0 -8 9 -14 20
-14 10 0 24 -9 30 -20 6 -11 20 -20 32 -20 16 0 18 -3 9 -14 -6 -7 -10 -24 -9
-37 2 -16 -2 -24 -12 -25 -8 0 -22 -3 -30 -7 -36 -13 -65 -15 -83 -5 -12 6
-22 6 -26 1 -9 -14 -100 -43 -116 -37 -7 3 -25 -2 -39 -11 -14 -10 -26 -13
-26 -9 0 5 -5 1 -11 -9 -8 -14 -14 -16 -25 -7 -10 9 -17 8 -29 -3 -13 -14 -13
-16 5 -22 32 -10 23 -25 -16 -25 -20 0 -54 11 -80 26 -43 25 -59 42 -29 30 8
-3 15 0 15 6 0 10 -57 4 -69 -7 -6 -6 35 -45 47 -45 5 0 15 -7 22 -15 7 -8 15
-13 19 -11 4 3 13 1 21 -5 19 -11 -37 -12 -97 0 -23 4 -47 4 -55 0 -14 -9 -16
-8 62 -29 25 -7 54 -16 65 -20 20 -8 20 -9 -1 -9 -25 -1 -93 -51 -94 -69 0 -8
15 -5 48 12 42 21 58 23 149 21 56 -2 106 -6 112 -10 14 -8 51 3 51 16 0 5 -7
9 -15 9 -8 0 -15 5 -15 10 0 6 14 10 30 10 17 0 30 4 30 9 0 10 -33 8 -65 -4
-15 -6 -17 -5 -9 4 14 16 78 26 101 16 10 -5 47 -10 82 -12 37 -2 68 -9 73
-16 6 -9 8 -9 8 0 0 7 7 10 15 7 23 -9 -8 -34 -42 -34 -16 0 -34 -5 -40 -11
-8 -8 -17 -8 -33 1 -16 9 -20 9 -15 1 9 -16 -15 -43 -32 -37 -17 7 -73 -4 -73
-14 0 -3 6 -7 13 -8 158 -13 185 -23 105 -42 l-33 -8 35 -1 c19 0 52 4 73 10
54 15 67 6 21 -15 -21 -9 -48 -22 -59 -28 -11 -6 -38 -13 -60 -16 -57 -6 -57
-12 0 -12 35 0 69 10 123 36 53 24 83 33 101 29 19 -4 22 -3 12 4 -10 6 4 9
45 7 64 -3 94 -12 94 -28 0 -6 -6 -6 -14 1 -10 8 -21 9 -33 3 -10 -5 -25 -7
-33 -5 -13 4 -13 3 0 -6 13 -10 13 -12 0 -20 -8 -6 -24 -16 -35 -24 -19 -14
-18 -15 8 -10 15 3 27 10 27 17 0 6 4 4 10 -4 8 -12 11 -12 28 3 10 9 28 17
39 17 34 0 83 21 93 40 5 10 23 21 40 25 16 4 33 13 37 20 13 22 66 46 74 34
5 -8 12 -8 26 0 11 5 23 8 26 5 3 -3 8 3 11 14 4 11 13 23 21 26 9 3 12 12 8
22 -5 13 -3 15 7 9 10 -6 12 -4 7 8 -3 10 -3 17 1 17 5 0 16 15 25 34 12 26
13 36 4 40 -7 2 -1 5 13 6 14 1 19 4 13 7 -7 2 -13 12 -13 21 0 14 2 14 9 3 8
-12 12 -11 27 3 17 17 27 57 26 104 0 12 6 22 13 22 22 0 29 22 11 35 -15 12
-15 13 1 20 10 5 29 10 43 12 14 2 30 11 36 19 7 8 19 12 28 8 9 -3 16 -1 16
5 0 7 13 4 35 -6 l36 -17 -30 -16 c-22 -11 -28 -19 -22 -29 5 -7 14 -10 20 -7
6 4 11 2 11 -3 0 -6 -11 -11 -25 -11 -14 0 -25 6 -25 13 0 8 -3 8 -9 -2 -8
-12 -14 -13 -36 -3 -21 10 -26 10 -23 0 3 -7 15 -15 28 -18 24 -6 41 -30 20
-30 -6 0 -8 5 -4 12 4 7 3 8 -4 4 -23 -14 -11 -25 36 -31 58 -7 126 -25 119
-31 -2 -2 -16 0 -31 5 -38 15 -32 -3 9 -22 24 -11 33 -21 29 -32 -4 -8 -10
-15 -14 -15 -14 0 -21 18 -10 23 6 3 5 4 -2 3 -7 -2 -11 -12 -10 -22 2 -10 5
-32 5 -49 2 -29 24 -58 39 -49 8 5 50 -84 45 -95 -2 -3 4 -14 15 -23 10 -10
18 -13 18 -7 0 5 5 7 10 4 20 -12 11 -33 -12 -27 -22 5 -22 5 -5 -12 9 -10 17
-25 16 -34 0 -12 -3 -11 -9 6 -13 32 -25 27 -25 -10 0 -23 9 -42 32 -66 17
-18 33 -42 35 -55 2 -12 9 -23 16 -23 6 -1 18 -2 25 -3 6 0 13 -12 13 -26 1
-14 -2 -23 -6 -20 -5 3 -6 -5 -2 -17 4 -16 2 -19 -8 -13 -9 6 -11 4 -5 -4 10
-17 13 -93 4 -106 -6 -8 7 -124 14 -131 1 -1 19 -5 39 -9 35 -7 36 -6 31 17
-2 13 -1 19 4 13 18 -21 118 -76 126 -69 3 3 4 -2 2 -13 -2 -10 -4 -35 -4 -55
-1 -27 -5 -38 -16 -38 -8 0 -15 -6 -15 -14 0 -10 -7 -13 -22 -10 -13 3 -43 9
-68 13 -25 5 -37 9 -27 10 21 1 22 17 1 25 -25 10 -32 7 -39 -15 -6 -19 -12
-20 -66 -16 -33 3 -59 2 -59 -4 0 -5 -10 -8 -22 -6 -12 1 -23 -4 -24 -10 -3
-25 -4 -25 -19 -13 -12 10 -15 10 -15 0 0 -7 -7 -10 -16 -6 -9 4 -24 1 -32 -6
-13 -11 -15 -11 -8 2 7 13 6 13 -6 0 -7 -8 -25 -21 -40 -29 -16 -8 -28 -18
-28 -22 0 -4 -21 -5 -46 -3 -36 4 -48 2 -59 -13 -15 -20 -1 -58 17 -47 7 4 8
3 4 -4 -4 -7 -3 -12 3 -12 6 0 16 -10 22 -22 9 -19 6 -17 -22 8 -19 17 -44 38
-57 46 -12 8 -39 31 -60 50 -23 21 -52 37 -73 40 -109 16 -185 39 -206 64 -32
35 -31 105 2 163 14 23 25 58 25 76 0 21 9 45 25 63 24 29 24 31 7 37 -11 3
-30 2 -43 -3 -13 -5 -37 -7 -52 -5 -18 2 -26 0 -22 -7 3 -5 -1 -10 -9 -10 -10
0 -13 -6 -10 -17 5 -17 5 -17 -6 -1 -8 13 -16 15 -28 9 -9 -5 -25 -12 -35 -15
-10 -3 -16 -9 -13 -14 2 -4 -9 -14 -26 -21 -17 -8 -33 -22 -35 -32 -3 -10 -9
-16 -14 -14 -16 11 -58 -6 -52 -21 3 -8 0 -14 -7 -14 -7 0 -10 -8 -7 -20 3
-11 1 -20 -4 -20 -5 0 -9 4 -9 9 0 5 -10 11 -21 14 -17 4 -19 3 -10 -6 16 -16
14 -30 -4 -24 -8 4 -17 2 -21 -4 -3 -6 -12 -8 -19 -6 -17 7 -46 -29 -39 -48 4
-8 2 -15 -4 -15 -6 0 -12 4 -14 10 -2 6 -14 6 -33 1 l-30 -9 27 -1 c30 -1 50
-21 20 -21 -31 0 -82 -30 -82 -48 0 -19 -45 -72 -61 -72 -6 0 -8 -9 -4 -20 6
-19 3 -20 -22 -14 -26 6 -27 5 -9 -8 19 -15 19 -15 -1 -20 -11 -3 -26 -20 -34
-37 -8 -17 -22 -34 -32 -37 -9 -3 -24 -18 -31 -33 -8 -15 -21 -33 -30 -40 -8
-7 -24 -30 -35 -51 -18 -36 -19 -39 -3 -43 14 -4 13 -6 -6 -12 -19 -6 -22 -13
-17 -32 4 -16 2 -22 -5 -18 -5 3 -10 15 -10 26 0 10 -6 19 -14 19 -18 0 -32
20 -20 29 5 3 10 11 10 16 1 6 4 25 8 44 l6 34 -22 -19 c-13 -10 -25 -20 -27
-21 -2 -1 1 -8 7 -16 6 -7 8 -24 5 -37 -6 -22 -7 -23 -14 -4 -6 16 -8 14 -15
-14 -4 -19 -13 -36 -20 -39 -21 -8 -18 -89 4 -105 9 -7 25 -30 34 -50 14 -30
15 -42 5 -67 -10 -28 -15 -31 -40 -25 -27 6 -28 5 -15 -16 11 -19 11 -23 -1
-28 -9 -3 -5 -11 15 -29 23 -20 26 -26 14 -33 -13 -8 -12 -10 2 -10 9 0 20 -5
24 -12 4 -7 3 -8 -4 -4 -7 4 -12 2 -12 -3 0 -6 7 -11 15 -11 8 0 15 8 15 18 0
9 5 24 10 32 8 11 9 7 4 -15 -4 -16 -14 -37 -23 -46 -22 -21 -51 -31 -48 -17
1 7 -6 14 -15 16 -10 2 -18 -2 -18 -8 0 -6 4 -9 9 -6 5 3 11 -4 14 -16 5 -18
8 -19 21 -8 17 13 21 5 16 -29 -2 -13 0 -13 16 0 16 13 16 12 5 -9 -7 -12 -17
-20 -24 -17 -7 4 -5 1 4 -7 9 -7 20 -24 24 -38 12 -39 26 -54 36 -38 7 11 9
11 9 0 0 -7 4 -10 10 -7 5 3 10 2 10 -4 0 -22 -48 -4 -78 30 -18 20 -32 39
-32 41 0 3 -19 34 -42 70 l-43 65 0 -71 c0 -39 -3 -165 -6 -281 -4 -115 -2
-223 3 -240 4 -16 13 -75 18 -130 6 -55 20 -135 31 -179 15 -58 18 -81 9 -86
-8 -5 -6 -9 6 -14 13 -5 15 -9 6 -18 -7 -7 -12 -23 -11 -38 l1 -25 8 25 8 25
1 -27 1 -28 120 0 120 0 -16 37 c-82 188 -123 469 -94 653 15 93 15 93 54 54
20 -20 36 -38 36 -41 0 -3 42 -48 93 -100 50 -51 98 -107 106 -123 8 -17 18
-30 22 -30 5 0 15 -16 24 -35 10 -19 25 -37 36 -40 10 -4 19 -15 19 -26 0 -10
5 -19 10 -19 7 0 7 -6 0 -20 -6 -12 -7 -20 -1 -20 5 0 19 -16 31 -35 12 -19
28 -35 36 -35 9 0 13 -4 9 -10 -9 -15 17 -48 34 -43 12 3 11 1 -2 -7 -25 -16
-60 -3 -54 21 5 20 -7 26 -18 8 -4 -5 19 -39 52 -74 32 -35 68 -76 80 -92 19
-25 24 -27 43 -15 14 9 26 10 40 2 10 -5 23 -10 28 -10 14 0 9 33 -5 43 -7 4
-13 13 -13 19 0 6 -8 17 -17 24 -10 7 -15 14 -11 14 13 0 72 -59 65 -66 -4 -4
1 -13 11 -20 14 -11 183 -13 857 -14 l840 0 61 127 c34 71 67 145 73 165 14
44 19 176 9 273 l-7 70 14 -50 c7 -27 14 -92 14 -144 1 -117 -32 -225 -120
-395 -11 -21 -17 -41 -13 -45 4 -3 8 -2 10 4 2 6 14 26 26 45 21 32 23 33 26
12 6 -39 20 -24 32 34 6 30 18 58 26 61 8 3 14 13 14 22 0 9 5 22 11 28 8 8 8
13 0 17 -19 12 -12 45 12 57 18 10 20 10 11 -2 -5 -8 -10 -23 -10 -34 1 -19 5
-20 49 -16 8 0 14 14 15 31 1 26 -1 28 -14 16 -8 -8 -13 -19 -12 -23 2 -4 -1
-10 -7 -13 -6 -3 -8 13 -6 40 1 25 7 46 12 48 5 2 9 10 9 17 0 7 6 16 13 18 9
4 9 8 -1 15 -11 7 -10 10 3 16 14 5 15 9 5 21 -6 8 -9 19 -6 24 4 5 2 12 -4
16 -19 12 -11 33 10 28 11 -3 17 -10 13 -16 -3 -6 -1 -7 5 -3 9 5 7 14 -5 32
-12 19 -13 28 -4 37 19 19 12 31 -7 14 -21 -19 -41 -22 -43 -7 -1 6 -3 15 -4
20 -1 6 -3 18 -4 28 -1 11 -4 13 -9 5 -4 -6 -8 6 -8 28 -1 21 2 39 7 39 5 0 7
27 5 60 -2 34 1 61 7 63 6 2 3 14 -7 29 -9 14 -13 28 -9 30 10 4 63 85 63 96
0 5 8 16 18 25 10 9 24 32 32 52 8 19 18 34 24 32 5 -2 26 -33 45 -70 30 -59
38 -67 63 -67 16 0 61 -9 100 -20 79 -22 133 -26 123 -10 -3 6 1 10 9 10 8 0
17 -4 20 -9 3 -5 30 -14 58 -21 29 -7 77 -20 107 -29 52 -17 55 -17 73 1 10
10 18 23 18 28 0 6 4 10 10 10 5 0 7 -13 4 -29 -6 -28 -4 -30 37 -41 24 -6 71
-20 103 -31 33 -10 65 -19 73 -19 7 0 41 -12 76 -26 34 -15 89 -30 122 -35 33
-4 80 -12 105 -16 25 -5 76 -7 113 -5 l67 4 0 1579 c0 1573 0 1579 -20 1567
-16 -10 -20 -25 -22 -68 -2 -86 -4 -103 -16 -130 -29 -64 -69 -83 -57 -27 4
17 12 38 19 46 9 12 8 13 -4 6 -12 -7 -13 -6 -4 6 6 8 14 32 17 54 15 101 20
115 46 115 39 0 41 14 41 299 l-1 276 -29 -56 c-29 -57 -75 -94 -200 -160
l-44 -24 -24 -139 c-12 -78 -34 -167 -48 -200 -46 -110 -66 -169 -98 -296 -17
-69 -35 -131 -40 -139 -6 -9 -21 -12 -47 -8 -34 4 -42 1 -83 -40 -39 -38 -48
-43 -66 -33 -15 8 -19 17 -15 31 7 20 6 20 -24 4 -30 -15 -31 -15 -31 5 0 17
-4 20 -20 15 -26 -8 -60 3 -60 19 0 8 -7 19 -16 26 -12 11 -15 11 -12 0 2 -7
-3 -15 -9 -17 -19 -7 -35 44 -22 68 8 16 7 26 -6 45 -10 16 -14 32 -9 42 14
31 13 97 -1 149 -18 62 -19 76 -4 67 9 -5 10 1 3 22 -4 16 -8 50 -9 76 0 25
-3 50 -7 54 -12 12 -9 36 3 28 16 -10 2 35 -22 68 -20 29 -25 58 -9 58 5 0 -2
12 -15 26 -14 15 -26 31 -26 35 -1 5 -3 21 -5 37 -8 68 -9 77 -14 82 -10 10
-50 69 -50 74 0 3 8 2 18 -1 13 -5 11 1 -9 28 -27 37 -28 72 -2 62 11 -4 14
-2 9 5 -4 7 -13 12 -19 12 -12 0 -39 50 -43 79 -2 7 -16 31 -33 52 -17 21 -31
44 -31 52 0 8 -17 30 -37 48 -21 18 -37 36 -36 40 1 4 -10 21 -26 38 -15 16
-34 43 -40 60 -7 16 -42 58 -77 94 -40 41 -59 67 -51 70 6 3 3 6 -7 6 -11 1
-36 19 -57 40 -27 30 -39 37 -48 28 -8 -8 -11 -6 -11 10 0 22 -23 47 -33 36
-4 -3 -7 -1 -7 6 0 18 -42 71 -52 65 -4 -3 -8 2 -8 10 0 17 -34 39 -44 29 -3
-3 -6 0 -6 7 0 11 -3 11 -12 2 -19 -19 -27 -14 -34 24 -4 23 -11 34 -20 30 -7
-3 -15 0 -18 7 -2 7 -5 4 -5 -5 -1 -10 -4 -18 -7 -18 -10 0 -44 41 -44 53 0 5
-7 7 -15 3 -9 -3 -24 2 -35 12 -12 9 -26 17 -33 17 -7 0 -13 10 -15 22 -3 19
-7 21 -23 13 -15 -9 -24 -5 -48 22 -24 27 -32 31 -42 21 -22 -21 -39 -15 -61
24 -12 20 -24 31 -26 25 -2 -7 -12 -12 -23 -12 -10 0 -19 -6 -19 -12 0 -7 -10
-1 -21 15 -11 15 -28 27 -36 27 -9 0 -22 8 -30 18 -8 9 -12 11 -8 5 4 -8 0
-13 -9 -13 -9 0 -16 -6 -17 -12 0 -7 -7 5 -15 26 -8 22 -17 42 -21 45 -3 3 -3
-2 0 -11 9 -25 -26 -32 -63 -13 -17 9 -33 22 -36 28 -5 15 -41 20 -49 6 -4 -5
-2 -9 4 -9 6 0 8 -7 4 -16 -3 -8 -12 -13 -19 -10 -8 3 -14 1 -14 -4 0 -6 -5
-10 -11 -10 -7 0 -9 10 -7 25 3 13 2 22 -3 20 -4 -3 -20 0 -36 6 -22 8 -26 8
-15 -2 14 -15 16 -39 3 -39 -5 0 -13 9 -16 20 -4 11 -15 20 -27 20 -14 0 -18
-5 -14 -15 3 -8 1 -15 -5 -15 -7 0 -9 12 -7 30 6 40 -14 44 -30 7 -12 -29 -13
-29 -27 -11 -8 11 -15 14 -15 7 0 -18 -20 -16 -20 1 0 8 -7 17 -16 20 -20 8
-24 8 -23 -1 1 -5 1 -16 0 -26 -1 -17 -2 -17 -25 0 -13 10 -22 21 -20 24 2 4
-3 12 -11 19 -13 10 -15 9 -15 -11z m-174 -257 c7 -4 14 -16 16 -27 2 -11 10
-19 17 -17 7 1 19 -2 26 -8 9 -8 14 -6 19 5 3 8 10 15 16 15 17 0 11 -39 -10
-60 -11 -11 -20 -25 -20 -32 0 -6 -6 -4 -13 7 -16 21 -39 12 -30 -13 3 -9 4
-15 2 -12 -44 52 -45 54 -26 47 10 -4 17 -4 15 0 -3 5 -10 23 -17 41 -7 17
-17 32 -22 32 -4 0 -6 7 -3 15 7 17 13 18 30 7z m554 4 c0 -3 -4 -8 -10 -11
-5 -3 -10 -1 -10 4 0 6 5 11 10 11 6 0 10 -2 10 -4z m-725 -26 c3 -5 1 -10 -4
-10 -6 0 -11 5 -11 10 0 6 2 10 4 10 3 0 8 -4 11 -10z m131 -17 c-7 -7 -26 7
-26 19 0 6 6 6 15 -2 9 -7 13 -15 11 -17z m24 -37 c0 -16 -21 -36 -37 -36 -7
0 -13 10 -13 23 0 16 6 22 25 23 14 1 25 -3 25 -10z m190 -2 c0 -3 -7 -12 -15
-20 -16 -17 -18 -14 -9 10 6 15 24 23 24 10z m440 -24 c0 -13 -28 -25 -38 -16
-3 4 0 11 8 16 20 13 30 12 30 0z m-635 -30 c3 -5 2 -10 -4 -10 -5 0 -13 5
-16 10 -3 6 -2 10 4 10 5 0 13 -4 16 -10z m101 -25 c-6 -17 19 -21 29 -5 12
19 33 10 44 -20 11 -32 -3 -42 -26 -19 -14 14 -34 2 -31 -18 2 -9 -3 -18 -9
-20 -16 -6 -17 29 -2 44 8 8 5 13 -9 18 -21 6 -20 35 0 35 6 0 8 -7 4 -15z
m-1376 -450 c0 -8 -4 -15 -10 -15 -5 0 -10 7 -10 15 0 8 5 15 10 15 6 0 10 -7
10 -15z m-50 -119 c0 -3 -4 -8 -10 -11 -5 -3 -10 -1 -10 4 0 6 5 11 10 11 6 0
10 -2 10 -4z m-97 -81 c-3 -9 -8 -14 -10 -11 -3 3 -2 9 2 15 9 16 15 13 8 -4z
m57 1 c-7 -7 -14 -6 -21 1 -9 9 -7 12 9 10 14 -1 18 -5 12 -11z m3305 -6 c3
-5 2 -10 -4 -10 -5 0 -13 5 -16 10 -3 6 -2 10 4 10 5 0 13 -4 16 -10z m-3539
-336 c-3 -9 -6 -19 -6 -24 0 -4 -8 -10 -17 -14 -10 -3 -25 -9 -33 -13 -8 -3
-1 10 15 30 32 37 51 48 41 21z m3534 -488 c0 -3 -4 -8 -10 -11 -5 -3 -10 -1
-10 4 0 6 5 11 10 11 6 0 10 -2 10 -4z m-4220 -87 c0 -5 -4 -9 -10 -9 -5 0
-10 7 -10 16 0 8 5 12 10 9 6 -3 10 -10 10 -16z m392 -111 c-15 -15 -26 -4
-18 18 5 13 9 15 18 6 9 -9 9 -15 0 -24z m314 -3 c-3 -8 -11 -15 -18 -14 -10
0 -10 2 0 6 6 2 12 14 13 26 0 12 3 16 6 9 3 -7 2 -19 -1 -27z m-176 10 c0 -8
-9 -15 -19 -15 -11 0 -28 -3 -38 -6 -14 -4 -13 -1 6 15 27 25 51 27 51 6z
m4416 -50 c-7 -18 -26 -20 -26 -2 0 18 24 41 28 27 2 -6 1 -17 -2 -25z m-4270
13 c4 -7 3 -8 -4 -4 -11 6 -16 -6 -13 -26 0 -5 -3 -8 -9 -8 -13 0 -13 6 0 31
12 22 16 23 26 7z m-642 -6 c3 -5 -1 -9 -9 -9 -8 0 -12 4 -9 9 3 4 7 8 9 8 2
0 6 -4 9 -8z m717 -81 c-6 -11 -8 -27 -5 -35 3 -9 1 -16 -5 -16 -7 0 -11 20
-11 49 0 27 -2 55 -3 63 -2 7 -2 10 0 6 8 -14 23 -8 25 10 1 9 3 0 5 -20 2
-20 -1 -46 -6 -57z m-271 73 c0 -1 -7 -10 -16 -18 -18 -19 -41 -11 -25 8 9 11
41 18 41 10z m-300 -25 c0 -5 -10 -9 -21 -9 -18 0 -19 2 -9 15 12 15 30 12 30
-6z m514 -4 c-4 -8 -8 -15 -10 -15 -2 0 -4 7 -4 15 0 8 4 15 10 15 5 0 7 -7 4
-15z m-11 -55 c-3 -11 -10 -23 -16 -27 -7 -4 -8 0 -4 11 4 10 7 22 7 27 0 5 4
9 9 9 5 0 7 -9 4 -20z m3882 -68 c-8 -8 -37 10 -43 26 -2 7 7 16 20 21 20 7
23 5 26 -16 2 -14 1 -28 -3 -31z m-1413 -14 c-9 -9 -12 -7 -12 12 0 19 3 21
12 12 9 -9 9 -15 0 -24z m-2418 -33 c10 -19 14 -40 10 -46 -9 -15 -24 9 -24
40 0 16 -4 21 -14 18 -10 -4 -13 -1 -9 9 8 23 19 17 37 -21z m1696 25 c0 -5
-8 -10 -17 -10 -15 0 -16 2 -3 10 19 12 20 12 20 0z m700 -31 c0 -5 -4 -9 -8
-9 -5 0 -9 7 -9 15 0 8 4 12 9 9 4 -3 8 -9 8 -15z m-760 -34 c0 -8 -4 -15 -10
-15 -5 0 -10 7 -10 15 0 8 5 15 10 15 6 0 10 -7 10 -15z m-1689 -48 c-8 -8
-11 -4 -11 14 0 33 14 47 18 19 2 -12 -1 -27 -7 -33z m1249 49 c0 -11 -19 -15
-25 -6 -3 5 1 10 9 10 9 0 16 -2 16 -4z m-1184 -112 c-16 -30 -21 -17 -10 24
4 15 10 20 16 14 6 -6 4 -20 -6 -38z m1044 14 c0 -4 -7 -8 -15 -8 -8 0 -15 4
-15 8 0 5 7 9 15 9 8 0 15 -4 15 -9z m2709 -54 l22 -37 -46 -42 -45 -42 -23
19 -22 20 26 -7 c24 -6 25 -4 21 24 -2 17 -9 31 -16 31 -7 0 -7 3 -1 8 19 14
35 51 28 68 -12 31 33 -3 56 -42z m811 47 c0 -5 3 -16 6 -25 4 -10 1 -16 -8
-16 -8 0 -20 -10 -26 -22 l-11 -23 0 23 c-1 13 6 30 14 39 8 8 13 19 10 24 -4
5 -1 9 4 9 6 0 11 -4 11 -9z m-57 -15 c1 -5 -8 -11 -20 -12 -17 -3 -21 0 -16
12 6 16 33 16 36 0z m-2743 -36 c13 -8 13 -10 -2 -10 -9 0 -20 5 -23 10 -8 13
5 13 25 0z m-1740 -30 c0 -11 -4 -20 -10 -20 -5 0 -10 9 -10 20 0 11 5 20 10
20 6 0 10 -9 10 -20z m4439 -3 c12 -15 12 -17 -3 -11 -9 3 -16 13 -16 22 0 8
1 13 3 11 1 -2 9 -12 16 -22z m-1584 -17 c3 -5 1 -10 -4 -10 -6 0 -11 5 -11
10 0 6 2 10 4 10 3 0 8 -4 11 -10z m779 -5 c-4 -8 -8 -15 -10 -15 -2 0 -4 7
-4 15 0 8 4 15 10 15 5 0 7 -7 4 -15z m-666 -64 c3 -8 -1 -12 -9 -9 -7 2 -15
10 -17 17 -3 8 1 12 9 9 7 -2 15 -10 17 -17z m1172 -1 c0 -5 -4 -10 -10 -10
-5 0 -10 5 -10 10 0 6 5 10 10 10 6 0 10 -4 10 -10z m23 -5 c-3 -9 -8 -14 -10
-11 -3 3 -2 9 2 15 9 16 15 13 8 -4z m-493 -181 c0 -40 -5 -67 -16 -80 -8 -10
-13 -14 -10 -8 8 17 9 114 2 159 -7 39 -7 39 8 15 9 -15 15 -50 16 -86z m-524
81 c-1 -9 -5 -15 -9 -15 -4 0 -14 0 -23 0 -8 0 -12 5 -9 10 4 6 11 8 16 5 5
-4 9 -1 9 4 0 6 4 11 9 11 5 0 8 -7 7 -15z m21 -17 c-3 -8 -6 -5 -6 6 -1 11 2
17 5 13 3 -3 4 -12 1 -19z m389 -6 c16 -14 23 -35 28 -85 5 -47 4 -67 -4 -67
-6 0 -8 -4 -5 -10 3 -5 1 -10 -4 -10 -6 0 -11 9 -11 20 0 11 -5 20 -10 20 -7
0 -8 13 -5 34 9 43 -3 85 -17 65 -8 -12 -9 -11 -5 1 2 8 0 23 -5 33 -12 23 10
22 38 -1z m-1596 -47 c0 -5 -5 -3 -10 5 -5 8 -10 20 -10 25 0 6 5 3 10 -5 5
-8 10 -19 10 -25z m1560 -36 c13 -52 12 -63 -6 -51 -13 8 -25 102 -14 102 5 0
13 -23 20 -51z m-2020 -73 c0 -2 -7 -7 -16 -10 -8 -3 -12 -2 -9 4 6 10 25 14
25 6z m2142 -57 l-10 -34 0 43 c0 27 4 40 10 34 6 -6 6 -22 0 -43z m-2406 -11
c12 -20 -14 -32 -40 -18 -14 7 -32 10 -40 7 -9 -4 -16 -2 -16 3 0 17 86 25 96
8z m2360 -9 c1 -8 2 -22 3 -32 0 -10 5 -16 10 -13 15 10 -2 -99 -43 -274 -28
-119 -111 -317 -138 -328 -4 -2 -8 -10 -8 -18 0 -9 -5 -12 -10 -9 -8 5 -7 12
2 22 8 10 13 50 15 106 1 56 6 93 13 97 7 4 8 10 3 13 -7 5 -9 59 -4 122 1 5
9 -2 18 -15 33 -48 39 -51 58 -30 16 18 16 20 1 26 -9 3 -13 10 -10 15 3 5 0
9 -5 9 -6 0 -11 -4 -11 -10 0 -5 -7 -7 -15 -4 -11 5 -13 10 -5 19 5 6 7 15 3
18 -3 4 0 7 9 7 8 0 20 -11 28 -24 7 -15 18 -22 27 -19 12 5 12 7 1 14 -8 5
-8 9 -2 9 15 0 38 83 31 111 -4 13 -1 19 6 16 8 -3 13 10 14 35 2 21 -1 37 -6
34 -5 -4 -5 10 0 32 9 41 8 60 -5 81 -6 9 -5 12 5 9 8 -3 15 -11 15 -19z m470
-14 c10 -9 25 -12 44 -8 21 4 30 2 31 -8 1 -8 3 -25 4 -39 4 -42 -4 -50 -54
-50 -57 0 -75 26 -57 84 12 41 12 41 32 21z m279 -36 c-7 -18 -55 -21 -55 -4
0 8 12 15 28 17 33 4 34 4 27 -13z m-72 -6 c-7 -2 -19 -2 -25 0 -7 3 -2 5 12
5 14 0 19 -2 13 -5z m-2203 -36 c0 -5 -4 -5 -10 -2 -5 3 -10 14 -10 23 0 15 2
15 10 2 5 -8 10 -19 10 -23z m205 -17 c4 -7 -3 -8 -22 -4 -38 9 -42 14 -10 14
14 0 29 -5 32 -10z m-150 -13 c13 -10 15 -16 6 -21 -17 -11 -41 0 -41 19 0 19
11 19 35 2z m185 -2 c0 -8 -2 -15 -4 -15 -2 0 -6 7 -10 15 -3 8 -1 15 4 15 6
0 10 -7 10 -15z m-104 -50 c17 -13 17 -14 2 -15 -10 0 -18 5 -18 11 0 5 -4 7
-10 4 -5 -3 -10 -1 -10 4 0 15 13 14 36 -4z m-2616 -76 c0 -5 -4 -9 -8 -9 -5
0 -9 7 -9 15 0 8 4 12 9 9 4 -3 8 -9 8 -15z m3860 2 c0 -6 -4 -13 -10 -16 -5
-3 -10 1 -10 9 0 9 5 16 10 16 6 0 10 -4 10 -9z m100 -7 c0 -2 -7 -4 -15 -4
-8 0 -15 4 -15 10 0 5 7 7 15 4 8 -4 15 -8 15 -10z m-163 -27 c-6 -20 -27 -19
-27 2 0 14 5 19 15 14 9 -3 14 -10 12 -16z m-2182 -97 c-3 -5 -11 -10 -16 -10
-6 0 -7 5 -4 10 3 6 11 10 16 10 6 0 7 -4 4 -10z m2427 -25 c0 -5 -5 -10 -11
-11 -8 -2 -7 -1 0 3 8 4 7 8 -2 15 -11 8 -11 9 -1 6 8 -2 14 -8 14 -13z
m-1447 -58 c4 5 5 2 1 -4 -11 -19 -24 -16 -37 10 -12 21 -11 21 8 4 11 -9 23
-14 28 -10z m-2633 -19 c-6 -6 -15 -8 -19 -4 -4 4 -1 11 7 16 8 5 17 7 19 4 3
-2 -1 -10 -7 -16z m3783 -18 c-3 -5 -10 -10 -16 -10 -5 0 -9 5 -9 10 0 6 7 10
16 10 8 0 12 -4 9 -10z m313 -59 c3 -18 -1 -22 -16 -19 -10 2 -27 -3 -36 -11
-13 -11 -22 -12 -42 -2 -36 16 -25 36 19 35 20 -1 36 2 35 5 -3 29 36 21 40
-8z m205 -22 c-6 -21 -6 -21 -26 -1 -24 24 -15 47 13 32 12 -6 16 -17 13 -31z
m-769 15 c28 -11 12 -44 -21 -44 -3 0 -3 7 1 15 4 13 2 14 -14 5 -21 -11 -40
-6 -40 10 0 5 10 11 23 13 12 2 25 5 29 6 3 0 13 -2 22 -5z m289 -23 c3 -14 1
-18 -9 -14 -15 6 -18 16 -7 26 9 10 10 9 16 -12z m-4423 -5 c0 -8 -7 -16 -15
-20 -15 -5 -21 14 -8 27 11 12 23 8 23 -7z m4790 0 c0 -16 -14 -36 -26 -36
-14 0 -19 22 -7 33 7 8 33 10 33 3z m-105 -47 c0 -8 -9 -15 -20 -17 -41 -7
-49 -12 -37 -24 19 -19 14 -28 -13 -28 -18 0 -25 5 -25 19 0 10 -7 22 -16 25
-28 11 -11 39 31 51 43 13 80 1 80 -26z m-331 16 c-22 -16 -44 -19 -44 -6 0 9
21 18 49 20 10 1 9 -4 -5 -14z m73 -43 c3 -26 -3 -28 -23 -7 -9 8 -12 20 -9
25 10 17 28 6 32 -18z m-367 8 c0 -5 -5 -10 -11 -10 -5 0 -7 5 -4 10 3 6 8 10
11 10 2 0 4 -4 4 -10z m130 0 c0 -5 -2 -10 -4 -10 -3 0 -8 5 -11 10 -3 6 -1
10 4 10 6 0 11 -4 11 -10z m90 -16 c0 -2 -8 -1 -17 4 -10 5 -25 7 -33 5 -13
-4 -13 -3 -1 6 14 9 51 -2 51 -15z m80 1 c38 -20 38 -35 0 -35 -18 0 -29 5
-27 12 1 6 -9 17 -23 25 l-25 13 23 0 c13 0 36 -7 52 -15z m-155 -5 c-3 -5
-16 -10 -28 -9 -20 1 -20 2 3 9 14 4 26 8 28 9 2 1 0 -3 -3 -9z m355 -16 c0
-8 -7 -14 -15 -14 -15 0 -21 21 -9 33 10 9 24 -2 24 -19z m-1287 3 c3 -7 -3
-13 -13 -13 -10 0 -16 6 -13 13 3 7 9 13 13 13 4 0 10 -6 13 -13z m1693 -8
c14 -16 15 -22 5 -28 -20 -13 -61 -1 -61 18 0 36 28 41 56 10z m-2606 2 c0
-11 -31 -24 -39 -16 -3 3 1 10 9 15 19 12 30 12 30 1z m735 -1 c-3 -5 -13 -10
-21 -10 -8 0 -14 5 -14 10 0 6 9 10 21 10 11 0 17 -4 14 -10z m40 -10 c-3 -5
-13 -10 -21 -10 -8 0 -12 5 -9 10 3 6 13 10 21 10 8 0 12 -4 9 -10z m-2145
-24 c0 -27 -15 -42 -25 -26 -8 13 3 50 16 50 5 0 9 -11 9 -24z m1457 -20 c9
-17 30 -44 47 -59 17 -16 30 -34 29 -41 -2 -7 21 -37 50 -68 28 -31 69 -77 90
-102 21 -26 47 -46 58 -46 10 0 19 -6 19 -14 0 -19 41 -28 59 -13 12 10 14 8
9 -10 -5 -19 -3 -21 10 -14 11 6 21 4 30 -5 11 -12 5 -14 -40 -16 -29 -1 -69
-1 -88 0 -78 5 -259 4 -327 -1 l-72 -6 -15 31 c-30 58 -12 156 51 281 13 26
21 47 18 47 -3 0 -1 9 6 21 8 16 8 24 -1 33 -8 8 -9 6 -4 -9 5 -15 4 -17 -5
-9 -21 19 -3 41 30 36 21 -3 34 -14 46 -36z m2113 -32 l25 -14 -29 2 c-16 2
-31 9 -34 16 -5 16 7 15 38 -4z m-4535 -34 c0 -7 -6 -15 -12 -17 -8 -3 -13 4
-13 17 0 13 5 20 13 18 6 -3 12 -11 12 -18z m4449 -6 c3 -8 2 -12 -4 -9 -6 3
-10 10 -10 16 0 14 7 11 14 -7z m742 -9 c15 -20 4 -65 -18 -79 -21 -13 -60 18
-51 40 3 8 0 14 -6 14 -6 0 -11 12 -11 26 0 25 2 26 37 21 21 -4 43 -14 49
-22z m-731 -25 c3 -5 1 -10 -4 -10 -6 0 -11 5 -11 10 0 6 2 10 4 10 3 0 8 -4
11 -10z m560 -11 c1 -8 6 -24 13 -36 11 -21 10 -23 -8 -23 -11 0 -29 9 -41 21
-20 20 -20 21 -3 40 19 21 39 20 39 -2z m-2451 -30 c-3 -6 -7 -9 -8 -7 -1 2
-8 12 -16 22 -14 18 -14 19 8 7 12 -7 20 -17 16 -22z m-914 -14 c0 -8 -2 -15
-4 -15 -2 0 -12 -3 -21 -6 -15 -6 -15 -4 -4 15 16 25 29 27 29 6z m2972 -33
c9 -9 8 -16 -5 -29 -16 -16 -18 -16 -33 -1 -9 9 -14 23 -11 31 7 17 31 17 49
-1z m311 3 c1 -5 -6 -11 -15 -13 -11 -2 -18 3 -18 13 0 17 30 18 33 0z m50
-34 c-3 -12 -11 -17 -19 -14 -15 5 -15 24 1 35 14 11 24 0 18 -21z m-3386 -31
c-6 -17 -14 -30 -17 -30 -10 0 -8 55 3 62 20 12 26 -1 14 -32z m2893 31 c0 -6
-4 -13 -10 -16 -5 -3 -10 1 -10 9 0 9 5 16 10 16 6 0 10 -4 10 -9z m8 -87 c6
-21 8 -41 3 -44 -4 -3 -13 -15 -20 -27 -18 -35 -44 -30 -36 6 5 24 2 32 -15
41 -19 10 -21 17 -15 48 4 20 9 40 12 45 9 16 60 -33 71 -69z m242 16 c0 -5
-5 -10 -11 -10 -5 0 -7 5 -4 10 3 6 8 10 11 10 2 0 4 -4 4 -10z m-120 -18 c0
-13 -12 -22 -22 -16 -10 6 -1 24 13 24 5 0 9 -4 9 -8z m70 -28 c0 -22 -16 -17
-17 6 -1 11 2 18 8 15 5 -4 9 -13 9 -21z m-3270 -39 c0 -8 -4 -15 -10 -15 -5
0 -7 7 -4 15 4 8 8 15 10 15 2 0 4 -7 4 -15z m-1430 -64 c0 -6 -5 -13 -10 -16
-6 -4 -7 -12 -4 -18 4 -7 1 -6 -7 2 -11 10 -11 15 -1 18 6 3 10 9 6 14 -3 5 0
9 5 9 6 0 11 -4 11 -9z m521 -34 c-10 -9 -11 -8 -5 6 3 10 9 15 12 12 3 -3 0
-11 -7 -18z m4009 -13 c0 -8 -4 -12 -10 -9 -5 3 -10 10 -10 16 0 5 5 9 10 9 6
0 10 -7 10 -16z m-1733 -14 c17 -10 37 -28 42 -39 13 -23 18 -132 8 -148 -4
-6 -37 -15 -74 -19 -64 -6 -67 -6 -91 21 -17 21 -26 25 -35 16 -6 -6 -26 -11
-43 -11 -25 0 -38 7 -53 29 -37 51 -25 151 17 151 10 0 33 -13 52 -29 l35 -29
23 39 c19 32 29 39 55 39 18 0 46 -9 64 -20z m512 -17 c0 -57 -31 -128 -54
-128 -34 0 -37 55 -6 115 32 63 61 69 60 13z m-828 -15 c38 -41 47 -58 31 -58
-12 0 -11 -34 2 -42 6 -4 4 -9 -7 -14 -32 -12 -80 48 -90 113 -9 57 11 58 64
1z m555 28 c40 -41 30 -188 -14 -194 -16 -2 -22 -10 -22 -27 0 -28 -11 -37
-30 -25 -11 7 -10 12 5 27 18 17 18 18 -21 21 -81 5 -84 7 -84 61 0 81 10 111
44 132 37 22 102 25 122 5z m142 2 c7 -7 12 -39 12 -75 0 -50 -4 -67 -20 -83
-23 -23 -29 -24 -65 -10 -23 9 -25 14 -24 62 1 44 7 58 32 86 33 35 46 39 65
20z m-2996 -25 c-6 -2 -9 -10 -6 -15 4 -7 2 -8 -5 -4 -13 9 -5 26 12 25 9 0 8
-2 -1 -6z m538 -30 c0 -20 -24 -11 -28 10 -2 12 1 15 12 11 9 -3 16 -13 16
-21z m3860 6 c0 -15 4 -19 16 -15 15 6 15 4 2 -16 -9 -13 -22 -24 -31 -26 -13
-3 -16 17 -8 71 2 17 21 5 21 -14z m-3082 -49 c7 -19 7 -32 1 -36 -5 -3 -9 -2
-8 3 1 4 1 10 -1 13 -5 13 -9 50 -6 50 2 0 9 -13 14 -30z m-1010 -18 c27 -25
43 -62 27 -62 -10 0 -64 65 -65 78 0 17 2 16 38 -16z m952 -12 c0 -5 -4 -10
-9 -10 -6 0 -13 5 -16 10 -3 6 1 10 9 10 9 0 16 -4 16 -10z m-1322 -24 c3 -12
-1 -17 -10 -14 -7 3 -15 13 -16 22 -3 12 1 17 10 14 7 -3 15 -13 16 -22z m142
-13 c0 -19 -13 -9 -16 12 -1 8 2 13 7 9 5 -3 9 -12 9 -21z m-63 -5 c-3 -8 -6
-5 -6 6 -1 11 2 17 5 13 3 -3 4 -12 1 -19z m-33 -3 c-6 -16 -24 -21 -24 -7 0
11 11 22 21 22 5 0 6 -7 3 -15z m2427 -25 c49 -22 98 -40 109 -40 11 0 20 -4
20 -8 0 -17 59 -41 120 -48 69 -7 130 -27 130 -42 0 -11 -135 -26 -151 -17 -6
4 -40 8 -75 9 -42 1 -68 6 -73 15 -6 8 -11 9 -15 3 -8 -13 -66 -13 -66 0 0 23
-25 -1 -25 -24 -1 -17 3 -24 12 -21 8 3 13 -3 13 -15 0 -21 65 -62 99 -62 10
0 21 -9 24 -21 4 -16 2 -19 -11 -14 -27 11 -56 12 -69 2 -9 -7 -13 -4 -13 8 0
13 -7 10 -29 -14 -21 -22 -38 -31 -62 -31 l-32 0 29 -25 c16 -14 23 -25 17
-25 -7 0 -13 -5 -13 -11 0 -5 5 -7 10 -4 6 3 10 1 10 -4 0 -6 -7 -11 -15 -11
-22 0 -18 -21 5 -27 23 -6 26 -19 8 -26 -7 -3 -2 -6 11 -6 13 -1 41 -18 65
-43 48 -48 117 -82 163 -80 26 1 40 -6 64 -33 28 -31 33 -32 47 -19 9 10 25
13 41 10 14 -3 20 -3 14 0 -18 8 -16 24 2 24 8 0 15 -4 15 -10 0 -5 7 -7 15
-4 12 5 14 0 9 -27 -4 -19 -11 -38 -16 -44 -6 -6 -8 -5 -6 5 2 8 -2 14 -9 13
-8 -2 -10 4 -6 15 3 9 3 14 -2 10 -4 -4 -16 -3 -26 3 -15 7 -17 6 -13 -6 6
-15 -12 -20 -66 -15 -22 2 -23 0 -10 -17 8 -10 18 -20 22 -23 4 -3 3 -12 -2
-20 -7 -11 -11 -11 -24 -1 -18 15 -22 1 -5 -16 7 -7 3 -19 -16 -39 -20 -22
-28 -25 -35 -15 -6 11 -14 9 -41 -10 -22 -15 -34 -19 -37 -11 -3 9 -9 8 -25
-3 -15 -11 -24 -12 -34 -3 -10 8 -13 7 -13 -6 0 -24 -37 -19 -66 9 -14 14 -26
25 -27 25 -2 0 -1 -16 1 -35 3 -23 0 -35 -8 -35 -8 0 -11 9 -8 25 4 18 1 25
-10 25 -9 0 -13 -7 -9 -19 3 -14 0 -17 -13 -14 -10 3 -20 13 -23 24 -3 10 -11
19 -19 19 -8 0 -9 -3 -2 -8 5 -4 10 -17 10 -29 0 -18 -6 -23 -28 -23 -15 0
-29 -4 -32 -9 -7 -10 -25 -9 -43 2 -8 5 -13 4 -13 -2 0 -6 -4 -11 -9 -11 -5 0
-7 9 -4 20 3 11 9 17 14 14 5 -3 9 2 9 11 0 14 -3 14 -27 1 -26 -13 -29 -12
-50 10 -13 14 -31 23 -45 21 -19 -2 -22 2 -20 22 3 15 0 21 -8 16 -7 -4 -14 2
-17 14 -4 16 -11 20 -24 16 -22 -7 -23 -2 -9 25 9 16 6 21 -15 26 -14 3 -25
14 -26 23 0 12 -2 12 -8 -4 -8 -19 -8 -19 -19 1 -8 15 -8 32 -2 55 6 19 10 35
10 36 0 1 -13 0 -30 -3 -19 -4 -30 -2 -30 5 0 6 5 11 10 11 6 0 10 11 10 23 0
13 3 27 7 31 11 11 12 35 2 42 -5 3 -9 -3 -9 -13 0 -11 -6 -28 -14 -38 -11
-16 -18 -17 -37 -8 -17 8 -19 12 -8 12 25 1 32 30 14 57 -25 39 -20 56 18 52
21 -2 32 -8 31 -18 -1 -9 6 -16 15 -17 20 -1 55 43 41 52 -5 3 -10 -1 -10 -9
0 -9 -7 -16 -15 -16 -8 0 -15 5 -15 10 0 6 4 10 8 10 5 0 9 7 9 16 0 14 -2 14
-14 -2 -11 -15 -16 -16 -22 -6 -6 10 -14 10 -35 2 -15 -5 -37 -10 -48 -10 -17
0 -19 2 -7 16 7 8 20 13 30 11 14 -4 16 -1 9 17 -4 11 -15 20 -24 20 -16 -2
-20 8 -17 34 2 14 -4 15 -28 2 -15 -8 -18 -5 -19 23 0 28 1 29 9 10 5 -15 14
-21 24 -17 8 3 12 11 9 18 -3 6 1 3 9 -6 8 -10 18 -14 22 -10 5 4 5 -1 2 -11
-4 -11 -4 -23 -1 -28 9 -15 34 10 27 27 -3 8 0 14 5 14 6 0 13 -9 17 -19 7
-22 39 -36 56 -26 6 4 8 14 5 22 -4 9 -2 11 6 7 8 -5 9 -2 5 9 -4 11 -1 17 8
17 8 0 12 -6 9 -13 -5 -15 32 -21 41 -6 4 5 1 9 -4 9 -6 0 -11 4 -11 9 0 5 18
12 39 16 32 5 39 11 38 27 -2 23 -32 44 -42 28 -11 -19 -25 -10 -25 16 0 14 4
23 10 19 6 -4 8 -12 4 -18 -3 -7 1 -3 10 7 12 15 19 16 29 8 17 -14 28 -6 20
16 -4 10 -2 13 5 8 9 -6 9 -1 0 18 -6 14 -19 26 -30 26 -10 0 -18 4 -18 10 0
15 37 6 60 -15 11 -10 20 -14 20 -8 0 6 11 8 24 6 13 -3 27 0 30 6 4 7 1 9 -8
5 -11 -4 -13 0 -9 15 4 16 2 20 -10 16 -10 -5 -14 1 -14 20 0 14 2 24 4 21 2
-2 17 0 33 4 28 8 28 7 18 -16 -7 -15 -8 -27 -2 -32 5 -4 8 -6 7 -4 -1 2 9 15
23 29 13 13 24 28 24 33 0 5 7 16 16 24 27 27 89 19 185 -24z m-1821 -6 c0
-15 -10 -17 -34 -8 -27 10 -19 32 9 26 14 -2 25 -11 25 -18z m732 4 c-7 -7
-12 -8 -12 -2 0 14 12 26 19 19 2 -3 -1 -11 -7 -17z m59 -21 c-10 -9 -11 -8
-5 6 3 10 9 15 12 12 3 -3 0 -11 -7 -18z m1359 -2 c0 12 20 -16 20 -29 0 -5
-6 -3 -13 3 -8 6 -17 8 -20 4 -4 -3 -7 5 -7 18 0 19 2 21 10 9 5 -8 10 -10 10
-5z m-1436 -30 c-4 -8 -11 -15 -16 -15 -6 0 -5 6 2 15 7 8 14 15 16 15 2 0 1
-7 -2 -15z m3316 5 c0 -5 -9 -10 -21 -10 -11 0 -17 5 -14 10 3 6 13 10 21 10
8 0 14 -4 14 -10z m-2620 -31 c0 -4 3 -16 6 -26 5 -17 5 -17 -9 0 -8 9 -19 17
-26 17 -6 0 -11 4 -11 9 0 6 9 9 20 8 11 -1 20 -4 20 -8z m-335 -9 c-3 -5 -11
-10 -16 -10 -6 0 -7 5 -4 10 3 6 11 10 16 10 6 0 7 -4 4 -10z m3483 -27 c5
-17 -26 -29 -40 -15 -6 6 -7 15 -3 22 9 14 37 9 43 -7z m-3622 -19 c-5 -17 -3
-23 4 -19 15 9 12 -1 -4 -14 -11 -9 -13 -7 -11 11 1 13 3 29 4 36 0 6 4 12 7
12 3 0 3 -12 0 -26z m141 19 c-4 -3 -3 -11 2 -17 7 -8 0 -12 -20 -12 l-29 -2
21 19 c20 18 41 27 26 12z m3169 -60 c-11 -11 -19 6 -11 24 8 17 8 17 12 0 3
-10 2 -21 -1 -24z m-3498 15 c16 -16 15 -28 -3 -28 -8 0 -15 5 -15 11 0 5 -4
7 -10 4 -6 -3 -7 1 -4 9 7 19 16 20 32 4z m243 -25 c6 -16 3 -22 -12 -26 -16
-4 -19 -2 -13 15 4 14 2 18 -5 14 -12 -8 -15 6 -4 18 11 11 25 2 34 -21z m379
3 c0 -2 -8 -10 -17 -17 -16 -13 -17 -12 -4 4 13 16 21 21 21 13z m3016 -17
c10 -17 -13 -36 -27 -22 -12 12 -4 33 11 33 5 0 12 -5 16 -11z m65 -2 c-1 -4
-1 -25 -1 -48 0 -33 -3 -40 -17 -37 -23 4 -29 44 -12 75 11 21 32 28 30 10z
m-3306 -17 c-3 -5 -12 -10 -18 -10 -7 0 -6 4 3 10 19 12 23 12 15 0z m-359
-19 c-8 -12 -46 -21 -46 -11 0 5 10 11 23 13 12 2 23 5 25 6 2 0 1 -3 -2 -8z
m68 0 c3 -5 -3 -11 -15 -14 -16 -4 -18 -3 -8 9 13 16 16 17 23 5z m-1514 -21
c0 -23 -22 -27 -39 -7 -13 16 -5 27 21 27 11 0 18 -7 18 -20z m1460 -5 c0 -2
-7 -8 -15 -15 -12 -10 -15 -10 -15 2 0 8 7 15 15 15 8 0 15 -1 15 -2z m205 -5
c-3 -5 -12 -7 -20 -3 -21 7 -19 13 6 13 11 0 18 -4 14 -10z m-1715 -15 c0 -14
-29 -35 -49 -35 -15 0 -14 23 1 38 17 17 48 15 48 -3z m5025 -6 c15 -15 -7
-28 -37 -22 -19 4 -28 11 -28 25 0 17 4 19 28 13 15 -3 31 -11 37 -16z m-3235
5 c0 -8 -19 -13 -24 -6 -3 5 1 9 9 9 8 0 15 -2 15 -3z m30 -4 c0 -5 -4 -10
-10 -10 -5 0 -10 5 -10 10 0 6 5 10 10 10 6 0 10 -4 10 -10z m-65 -30 c-3 -5
-11 -10 -16 -10 -6 0 -7 5 -4 10 3 6 11 10 16 10 6 0 7 -4 4 -10z m107 -25 c6
-29 -7 -43 -16 -19 -9 23 -7 44 3 44 5 0 11 -11 13 -25z m-1887 -4 c10 -17
-12 -21 -25 -6 -10 12 -10 15 3 15 9 0 18 -4 22 -9z m1705 -56 c0 -12 -19 -12
-23 0 -4 9 -1 12 9 8 7 -3 14 -7 14 -8z m2340 -6 c0 -5 -4 -9 -10 -9 -5 0 -10
7 -10 16 0 8 5 12 10 9 6 -3 10 -10 10 -16z m-2153 -10 c-12 -7 -16 -17 -12
-30 4 -11 2 -19 -4 -19 -12 0 -15 43 -4 53 3 4 13 7 22 7 13 -1 13 -2 -2 -11z
m-65 -21 c-7 -7 -12 -8 -12 -2 0 14 12 26 19 19 2 -3 -1 -11 -7 -17z m128 -11
c0 -4 -6 -5 -12 -2 -7 4 -5 0 5 -8 23 -20 21 -27 -7 -25 -17 2 -26 10 -29 28
-3 13 -3 28 -1 32 6 9 44 -13 44 -25z m-233 17 c-3 -3 -12 -4 -19 -1 -8 3 -5
6 6 6 11 1 17 -2 13 -5z m163 -104 c0 -5 -4 -10 -10 -10 -5 0 -10 5 -10 10 0
6 5 10 10 10 6 0 10 -4 10 -10z m2020 -20 c0 -5 -2 -10 -4 -10 -3 0 -8 5 -11
10 -3 6 -1 10 4 10 6 0 11 -4 11 -10z m-1959 -27 c-8 -15 -10 -15 -11 -2 0 17
10 32 18 25 2 -3 -1 -13 -7 -23z m59 -52 c13 -48 13 -51 -6 -51 -10 0 -14 6
-10 15 3 8 1 15 -5 15 -7 0 -9 10 -5 24 3 14 2 28 -4 31 -5 3 -10 11 -10 17 0
23 30 -16 40 -51z m27 34 c0 -8 -4 -12 -9 -9 -4 3 -8 9 -8 15 0 5 4 9 8 9 5 0
9 -7 9 -15z m1043 -45 c7 -14 7 -20 0 -20 -5 0 -10 5 -10 10 0 6 -7 10 -16 10
-8 0 -12 5 -9 10 10 16 23 12 35 -10z m-57 -10 c3 -11 1 -20 -4 -20 -5 0 -9 9
-9 20 0 11 2 20 4 20 2 0 6 -9 9 -20z m-143 -24 c-14 -8 -28 -12 -33 -9 -14 8
1 18 30 20 l28 2 -25 -13z m10 -66 c0 -4 -10 -7 -23 -6 -13 0 -24 6 -24 12 0
6 11 9 24 6 13 -2 23 -8 23 -12z m-735 -21 c11 -17 -1 -21 -15 -4 -8 9 -8 15
-2 15 6 0 14 -5 17 -11z m95 -95 c0 -2 -15 -4 -32 -3 -27 0 -29 2 -13 8 18 8
45 4 45 -5z m225 -2 c-3 -3 -11 0 -18 7 -9 10 -8 11 6 5 10 -3 15 -9 12 -12z
m-197 -16 c-1 -15 -7 -22 -15 -19 -16 6 -16 16 -1 31 17 17 18 15 16 -12z
m1712 9 c0 -8 -7 -15 -15 -15 -8 0 -15 7 -15 15 0 8 7 15 15 15 8 0 15 -7 15
-15z m-1643 -30 c-4 -8 -11 -15 -17 -15 -7 0 -7 6 0 21 13 23 26 19 17 -6z
m-259 -50 c3 -3 -4 -4 -16 -2 -12 2 -24 6 -28 10 -4 3 4 4 16 2 12 -2 25 -7
28 -10z m1817 -101 c-23 -23 -32 -8 -9 17 10 11 20 16 22 10 2 -6 -4 -18 -13
-27z m-1648 12 c0 -8 -6 -12 -14 -9 -7 3 -10 9 -7 14 8 14 21 11 21 -5z m158
4 c3 -6 -1 -7 -9 -4 -18 7 -21 14 -7 14 6 0 13 -4 16 -10z m-130 -40 c3 -6 -1
-7 -9 -4 -18 7 -21 14 -7 14 6 0 13 -4 16 -10z"/>
<path d="M4632 2776 c7 -8 15 -12 17 -11 5 6 -10 25 -20 25 -5 0 -4 -6 3 -14z"/>
<path d="M2298 2563 c7 -3 16 -2 19 1 4 3 -2 6 -13 5 -11 0 -14 -3 -6 -6z"/>
<path d="M2570 1520 c6 -11 15 -20 20 -20 6 0 10 9 10 20 0 13 -7 20 -20 20
-18 0 -19 -3 -10 -20z"/>
<path d="M3300 1168 c0 -4 4 -8 9 -8 6 0 12 4 15 8 3 5 -1 9 -9 9 -8 0 -15 -4
-15 -9z"/>
<path d="M2605 1000 c-3 -5 1 -10 10 -10 9 0 13 5 10 10 -3 6 -8 10 -10 10 -2
0 -7 -4 -10 -10z"/>
<path d="M2320 925 c0 -8 -5 -15 -11 -15 -8 0 -8 -5 1 -15 7 -8 18 -15 25 -15
8 0 16 -6 18 -12 3 -7 6 3 6 22 0 29 -1 32 -10 17 -13 -22 -29 -13 -22 13 3
11 3 20 -1 20 -3 0 -6 -7 -6 -15z"/>
<path d="M2278 853 c-48 -20 -49 -33 -3 -33 24 0 35 5 35 15 0 8 7 15 16 15 8
0 12 5 9 10 -8 12 -11 12 -57 -7z"/>
<path d="M2587 836 c-6 -21 -11 -26 -16 -17 -6 10 -10 9 -14 -3 -9 -22 3 -25
38 -10 17 7 25 13 18 14 -6 0 -13 10 -15 23 -3 20 -4 19 -11 -7z"/>
<path d="M2100 755 c-14 -16 -3 -20 19 -6 8 5 9 11 3 15 -5 3 -15 -1 -22 -9z"/>
<path d="M2185 689 c-10 -15 3 -25 16 -12 7 7 7 13 1 17 -6 3 -14 1 -17 -5z"/>
<path d="M2140 576 c0 -13 6 -28 13 -34 10 -9 12 -4 9 23 -5 39 -22 48 -22 11z"/>
<path d="M2855 500 c-3 -5 1 -10 9 -10 9 0 16 5 16 10 0 6 -4 10 -9 10 -6 0
-13 -4 -16 -10z"/>
<path d="M2900 460 c0 -5 5 -10 11 -10 5 0 7 5 4 10 -3 6 -8 10 -11 10 -2 0
-4 -4 -4 -10z"/>
<path d="M2805 360 c3 -5 11 -10 16 -10 6 0 7 5 4 10 -3 6 -11 10 -16 10 -6 0
-7 -4 -4 -10z"/>
<path d="M2790 340 c0 -5 5 -10 11 -10 5 0 7 5 4 10 -3 6 -8 10 -11 10 -2 0
-4 -4 -4 -10z"/>
<path d="M2721 313 c7 -8 16 -10 23 -4 6 4 18 11 26 14 8 3 -2 5 -22 4 -31 0
-36 -3 -27 -14z"/>
<path d="M2395 310 c-4 -6 -16 -8 -27 -4 -13 4 -18 2 -14 -4 3 -5 22 -10 41
-9 27 1 32 4 23 14 -13 16 -15 16 -23 3z"/>
<path d="M3240 5530 c0 -5 5 -10 11 -10 5 0 7 5 4 10 -3 6 -8 10 -11 10 -2 0
-4 -4 -4 -10z"/>
<path d="M3395 5170 c-3 -5 -4 -10 -1 -10 2 0 11 -3 20 -6 11 -4 16 -1 16 10
0 18 -25 22 -35 6z"/>
<path d="M3326 5155 c-8 -9 -12 -23 -9 -32 5 -13 8 -12 16 8 8 20 11 21 14 7
5 -19 28 -24 38 -8 4 6 -1 7 -11 3 -11 -4 -15 -2 -11 4 4 6 1 16 -7 22 -11 9
-18 8 -30 -4z"/>
<path d="M3235 5050 c3 -5 11 -10 16 -10 6 0 7 5 4 10 -3 6 -11 10 -16 10 -6
0 -7 -4 -4 -10z"/>
<path d="M2960 5027 c0 -7 9 -13 19 -13 15 0 17 3 9 13 -6 7 -14 13 -19 13 -5
0 -9 -6 -9 -13z"/>
<path d="M2815 5010 c3 -5 10 -10 16 -10 5 0 9 5 9 10 0 6 -7 10 -16 10 -8 0
-12 -4 -9 -10z"/>
<path d="M2836 4994 c-19 -14 -19 -14 2 -14 15 0 20 -5 16 -15 -4 -8 -11 -12
-17 -8 -6 4 -7 1 -3 -6 5 -7 14 -10 21 -7 7 2 19 -1 26 -7 10 -10 11 -9 2 3
-6 8 -14 27 -19 42 -8 24 -11 25 -28 12z"/>
<path d="M2880 4900 c0 -6 7 -10 15 -10 8 0 15 2 15 4 0 2 -7 6 -15 10 -8 3
-15 1 -15 -4z"/>
<path d="M3790 4901 c0 -13 29 -35 37 -28 7 8 -15 37 -28 37 -5 0 -9 -4 -9 -9z"/>
<path d="M4080 4681 c0 -5 7 -12 16 -15 14 -5 15 -4 4 9 -14 17 -20 19 -20 6z"/>
<path d="M4136 4642 c-3 -5 6 -20 19 -32 19 -18 25 -20 25 -8 0 19 -36 52 -44
40z"/>
<path d="M4140 4583 c0 -15 18 -35 23 -27 3 5 -1 15 -9 22 -8 7 -14 9 -14 5z"/>
<path d="M4545 4540 c3 -5 8 -10 11 -10 2 0 4 5 4 10 0 6 -5 10 -11 10 -5 0
-7 -4 -4 -10z"/>
<path d="M4427 4199 c7 -7 15 -10 18 -7 3 3 -2 9 -12 12 -14 6 -15 5 -6 -5z"/>
<path d="M3967 3959 c4 -13 9 -17 15 -11 11 11 3 32 -12 32 -4 0 -6 -9 -3 -21z"/>
<path d="M4190 3811 c0 -6 5 -13 10 -16 6 -3 10 1 10 9 0 9 -4 16 -10 16 -5 0
-10 -4 -10 -9z"/>
<path d="M4212 3726 c7 -8 15 -12 17 -11 5 6 -10 25 -20 25 -5 0 -4 -6 3 -14z"/>
<path d="M3950 3623 c0 -13 29 -38 35 -31 3 3 -4 13 -15 23 -11 10 -20 13 -20
8z"/>
<path d="M4160 3585 c0 -5 5 -17 10 -25 5 -8 10 -10 10 -5 0 6 -5 17 -10 25
-5 8 -10 11 -10 5z"/>
<path d="M3890 3543 c0 -30 17 -50 31 -36 8 8 8 16 0 32 -14 26 -31 27 -31 4z"/>
<path d="M4150 3543 c0 -4 5 -15 10 -23 8 -13 10 -13 10 2 0 9 -4 20 -10 23
-5 3 -10 3 -10 -2z"/>
<path d="M4206 3405 c4 -8 8 -15 10 -15 2 0 4 7 4 15 0 8 -4 15 -10 15 -5 0
-7 -7 -4 -15z"/>
<path d="M4367 3413 c-4 -3 -7 -13 -7 -21 0 -18 13 -7 16 13 2 17 1 18 -9 8z"/>
<path d="M3546 3365 c-3 -9 1 -18 10 -22 17 -6 39 -50 35 -70 -1 -7 3 -13 9
-13 5 0 10 5 10 10 0 6 9 10 19 10 11 0 23 5 26 10 3 6 -4 10 -16 10 -18 0
-19 2 -9 15 7 9 11 17 9 18 -9 7 -80 47 -84 47 -1 0 -6 -7 -9 -15z"/>
<path d="M4311 3366 c-7 -8 -8 -17 -3 -20 6 -3 13 1 16 10 9 23 2 28 -13 10z"/>
<path d="M3620 3360 c0 -5 5 -10 11 -10 5 0 7 5 4 10 -3 6 -8 10 -11 10 -2 0
-4 -4 -4 -10z"/>
<path d="M3700 3350 c0 -14 7 -20 21 -20 15 0 19 4 15 16 -3 9 -6 18 -6 20 0
2 -7 4 -15 4 -8 0 -15 -9 -15 -20z"/>
<path d="M3330 3350 c0 -5 5 -10 11 -10 5 0 7 5 4 10 -3 6 -8 10 -11 10 -2 0
-4 -4 -4 -10z"/>
<path d="M4345 3300 c3 -5 8 -10 11 -10 2 0 4 5 4 10 0 6 -5 10 -11 10 -5 0
-7 -4 -4 -10z"/>
<path d="M3658 3263 c7 -3 16 -2 19 1 4 3 -2 6 -13 5 -11 0 -14 -3 -6 -6z"/>
<path d="M4327 3225 c8 -25 19 -47 24 -51 14 -8 10 -24 -6 -24 -21 0 -16 -50
7 -72 17 -17 18 -17 18 15 l1 32 14 -25 c8 -14 14 -21 15 -15 0 5 5 4 12 -3 7
-7 16 -12 22 -12 5 0 -2 9 -15 21 -13 11 -23 28 -21 36 2 11 -3 13 -20 8 -21
-6 -22 -5 -5 8 15 12 16 19 6 43 -7 16 -12 32 -11 36 3 12 -31 48 -45 48 -9 0
-8 -11 4 -45z"/>
<path d="M2581 3226 c-1 -13 -6 -16 -18 -11 -14 5 -15 3 -7 -5 19 -19 43 -8
33 15 -7 18 -8 18 -8 1z"/>
<path d="M3876 3225 c4 -8 11 -15 16 -15 6 0 5 6 -2 15 -7 8 -14 15 -16 15 -2
0 -1 -7 2 -15z"/>
<path d="M3978 3222 c7 -5 10 -16 6 -25 -3 -10 -1 -17 6 -17 17 0 8 43 -10 47
-11 4 -12 2 -2 -5z"/>
<path d="M4126 3166 c6 -17 34 -30 34 -16 0 5 -9 14 -20 20 -16 8 -18 8 -14
-4z"/>
<path d="M1915 3160 c-16 -7 -17 -9 -3 -9 9 -1 20 4 23 9 7 11 7 11 -20 0z"/>
<path d="M4185 3090 c3 -5 8 -10 11 -10 2 0 4 5 4 10 0 6 -5 10 -11 10 -5 0
-7 -4 -4 -10z"/>
<path d="M4400 3043 c0 -15 -2 -16 -10 -3 -5 8 -13 11 -17 6 -4 -4 1 -14 11
-22 20 -14 20 -14 0 -14 -14 0 -20 -7 -22 -25 -2 -22 1 -24 18 -15 23 12 26
17 35 58 4 20 3 32 -4 32 -6 0 -11 -8 -11 -17z"/>
<path d="M859 2893 c-3 -51 5 -89 27 -133 33 -65 46 -72 44 -24 -3 66 0 84 13
84 7 0 18 -9 25 -21 8 -12 9 -18 4 -15 -6 3 -13 -2 -16 -11 -4 -10 -4 -14 0
-11 4 4 14 3 23 -2 10 -5 23 -5 30 0 17 10 4 33 -12 24 -7 -4 -9 -4 -5 1 13
14 -12 44 -72 85 -50 34 -60 38 -61 23z"/>
<path d="M2788 2833 c6 -2 18 -2 25 0 6 3 1 5 -13 5 -14 0 -19 -2 -12 -5z"/>
<path d="M4477 2749 c7 -7 15 -10 18 -7 3 3 -2 9 -12 12 -14 6 -15 5 -6 -5z"/>
<path d="M4490 2720 c0 -5 5 -10 11 -10 5 0 7 5 4 10 -3 6 -8 10 -11 10 -2 0
-4 -4 -4 -10z"/>
<path d="M4460 2651 c0 -5 7 -15 17 -22 15 -13 15 -12 4 9 -12 23 -21 28 -21
13z"/>
<path d="M4427 2635 c-19 -13 -7 -32 13 -20 6 3 10 -2 11 -12 0 -10 3 -13 5
-7 3 6 1 20 -3 32 -7 18 -10 19 -26 7z"/>
<path d="M2556 2581 c-4 -7 -5 -15 -2 -18 9 -9 19 4 14 18 -4 11 -6 11 -12 0z"/>
<path d="M4475 2570 c3 -5 -1 -10 -9 -10 -19 0 -21 -11 -5 -27 7 -7 8 -17 1
-29 -7 -14 -6 -23 3 -31 10 -10 14 -9 19 3 3 9 4 20 0 25 -3 5 3 9 12 9 16 0
16 1 0 19 -9 10 -14 25 -10 35 3 9 1 16 -6 16 -6 0 -8 -4 -5 -10z"/>
<path d="M1648 2546 c-48 -12 -90 -24 -93 -28 -4 -3 11 -2 32 3 21 5 54 9 73
9 19 0 49 9 65 20 36 24 34 24 -77 -4z"/>
<path d="M2065 2500 c-3 -5 -1 -10 4 -10 6 0 11 5 11 10 0 6 -2 10 -4 10 -3 0
-8 -4 -11 -10z"/>
<path d="M3722 2438 c2 -5 7 -9 11 -9 4 1 16 1 27 1 11 0 20 4 20 9 0 5 -14 9
-30 9 -17 -1 -29 -5 -28 -10z"/>
<path d="M4480 2435 c0 -8 4 -15 10 -15 5 0 7 7 4 15 -4 8 -8 15 -10 15 -2 0
-4 -7 -4 -15z"/>
<path d="M3788 2403 c7 -3 16 -2 19 1 4 3 -2 6 -13 5 -11 0 -14 -3 -6 -6z"/>
<path d="M4260 2392 c6 -13 14 -21 18 -18 3 4 -2 14 -12 24 -18 16 -18 16 -6
-6z"/>
<path d="M3345 2389 c-10 -15 3 -25 16 -12 7 7 7 13 1 17 -6 3 -14 1 -17 -5z"/>
<path d="M3513 2383 c0 -7 11 -13 24 -13 13 0 23 4 23 9 0 5 -10 11 -23 13
-15 3 -24 0 -24 -9z"/>
<path d="M4297 2374 c-3 -5 1 -15 9 -22 16 -14 18 -5 5 17 -5 7 -11 9 -14 5z"/>
<path d="M4332 2350 c0 -14 2 -19 5 -12 2 6 2 18 0 25 -3 6 -5 1 -5 -13z"/>
<path d="M3440 2330 c0 -5 5 -10 11 -10 5 0 7 5 4 10 -3 6 -8 10 -11 10 -2 0
-4 -4 -4 -10z"/>
<path d="M4400 2330 c0 -5 5 -10 11 -10 5 0 7 5 4 10 -3 6 -8 10 -11 10 -2 0
-4 -4 -4 -10z"/>
<path d="M4054 2323 c3 -4 1 -12 -5 -20 -13 -14 -2 -17 25 -7 22 9 20 21 -5
27 -12 3 -18 3 -15 0z"/>
<path d="M4326 2312 c-2 -4 -1 -14 4 -22 7 -11 9 -9 7 8 -1 24 -3 26 -11 14z"/>
<path d="M4350 2280 c0 -5 9 -10 21 -10 11 0 17 5 14 10 -3 6 -13 10 -21 10
-8 0 -14 -4 -14 -10z"/>
<path d="M4374 2220 c0 -22 -3 -40 -9 -40 -5 0 -2 -5 9 -11 14 -9 22 -7 34 5
15 15 15 16 -3 16 -10 0 -15 3 -11 8 4 4 13 7 19 7 5 0 12 6 15 13 2 6 -3 12
-11 12 -8 0 -17 7 -21 15 -11 29 -24 15 -22 -25z"/>
<path d="M4235 2160 c10 -11 20 -20 23 -20 3 0 -3 9 -13 20 -10 11 -20 20 -23
20 -3 0 3 -9 13 -20z"/>
<path d="M3800 2124 c0 -14 -3 -14 -15 -4 -9 7 -18 10 -22 6 -3 -3 -1 -6 5 -6
6 0 9 -7 6 -15 -7 -16 4 -19 22 -7 15 10 25 42 14 42 -6 0 -10 -7 -10 -16z"/>
<path d="M4080 2064 c0 -7 27 -34 35 -34 3 0 1 9 -5 20 -10 18 -30 28 -30 14z"/>
<path d="M4040 2020 c0 -5 5 -10 10 -10 6 0 10 5 10 10 0 6 -4 10 -10 10 -5 0
-10 -4 -10 -10z"/>
<path d="M3230 2010 c0 -5 5 -10 11 -10 5 0 7 5 4 10 -3 6 -8 10 -11 10 -2 0
-4 -4 -4 -10z"/>
<path d="M1222 1978 c2 -16 6 -24 11 -19 5 5 5 17 -2 28 -9 16 -10 15 -9 -9z"/>
<path d="M2690 1814 c0 -2 18 -13 39 -24 43 -21 69 -10 35 15 -16 11 -74 18
-74 9z"/>
<path d="M1705 1740 c-3 -5 1 -10 9 -10 9 0 16 5 16 10 0 6 -4 10 -9 10 -6 0
-13 -4 -16 -10z"/>
<path d="M1450 1513 c0 -13 5 -23 10 -23 13 0 13 11 0 30 -8 12 -10 11 -10 -7z"/>
<path d="M1310 1334 c0 -10 5 -26 10 -34 8 -11 9 -7 4 15 -8 37 -14 45 -14 19z"/>
<path d="M1490 1306 c0 -9 5 -16 10 -16 6 0 10 4 10 9 0 6 -4 13 -10 16 -5 3
-10 -1 -10 -9z"/>
<path d="M1330 1256 c0 -8 4 -17 9 -20 5 -4 7 3 4 14 -6 23 -13 26 -13 6z"/>
<path d="M1475 1260 c3 -5 13 -10 21 -10 8 0 14 5 14 10 0 6 -9 10 -21 10 -11
0 -17 -4 -14 -10z"/>
<path d="M4512 815 c3 -4 -3 -16 -13 -26 -13 -13 -19 -30 -17 -46 4 -37 26
-40 33 -6 4 15 10 38 15 50 7 16 5 23 -8 28 -9 3 -14 3 -10 0z"/>
<path d="M4585 670 c-20 -39 -50 -41 -41 -2 4 15 3 22 -1 16 -4 -6 -13 -13
-19 -15 -8 -3 -4 -23 13 -64 l25 -60 39 3 c43 4 65 22 27 22 -15 0 -27 9 -35
25 -11 24 -10 25 28 25 37 0 39 -2 39 -30 0 -36 14 -43 55 -31 23 7 25 10 10
11 -11 1 -23 2 -26 2 -4 -1 -9 8 -12 19 -6 23 10 32 45 27 19 -2 23 -9 22 -36
-2 -28 1 -32 17 -27 10 4 24 3 30 0 18 -12 121 -16 114 -5 -3 6 -15 10 -26 10
-10 0 -19 6 -19 14 0 8 -3 21 -6 29 -3 10 2 17 13 20 10 3 -2 5 -26 6 -38 1
-42 -1 -29 -11 22 -18 33 -58 16 -58 -48 1 -80 34 -55 59 6 6 7 12 2 13 -30 4
-76 8 -122 9 -51 1 -74 11 -53 24 13 8 13 35 0 35 -5 0 -16 -13 -25 -30z"/>
<path d="M4240 656 c0 -7 7 -19 15 -26 9 -8 15 -9 15 -2 0 6 -5 14 -10 17 -6
4 -8 11 -5 16 4 5 1 9 -4 9 -6 0 -11 -6 -11 -14z"/>
<path d="M5150 645 c0 -8 2 -15 4 -15 2 0 6 7 10 15 3 8 1 15 -4 15 -6 0 -10
-7 -10 -15z"/>
<path d="M5309 615 c-7 -19 -16 -35 -19 -35 -3 0 -4 -16 -2 -35 3 -21 10 -35
18 -35 10 0 12 8 8 29 -3 16 -1 31 4 35 17 10 38 -3 39 -26 3 -28 18 -42 38
-34 15 5 15 7 1 22 -35 34 -23 39 104 39 84 0 95 -2 94 -17 -1 -14 6 -18 29
-18 29 0 29 1 13 19 -16 17 -16 19 1 26 17 7 17 8 -2 15 -11 4 -24 4 -30 0 -5
-4 -58 -7 -118 -6 -59 0 -107 -2 -107 -6 0 -14 -37 -9 -49 6 -9 11 -10 20 -1
35 6 13 7 21 1 21 -5 0 -15 -16 -22 -35z"/>
<path d="M5219 619 c12 -10 21 -20 21 -23 0 -10 -46 -7 -75 4 -34 13 -48 5
-34 -21 7 -14 14 -17 22 -11 7 6 33 8 60 6 26 -2 47 -2 47 0 0 2 -5 16 -10 32
-7 20 -17 30 -31 30 l-21 0 21 -17z"/>
<path d="M4933 617 c-3 -5 -2 -12 3 -16 12 -9 13 -51 1 -51 -6 0 -7 -3 -3 -7
10 -11 87 -12 80 -2 -3 5 -16 9 -29 9 -20 0 -24 5 -23 25 2 19 8 25 25 25 13
0 23 4 23 9 0 12 -70 19 -77 8z"/>
<path d="M4275 609 c-8 -12 0 -22 20 -25 12 -2 12 2 5 17 -12 22 -16 23 -25 8z"/>
<path d="M5048 612 c-28 -3 -36 -16 -18 -27 6 -3 10 -17 10 -30 0 -16 7 -25
25 -29 14 -4 30 -4 35 -1 5 3 11 1 15 -4 3 -6 13 -7 23 -4 12 5 4 10 -28 18
-32 8 -45 16 -44 28 1 9 -2 17 -7 17 -5 0 -9 4 -9 10 0 5 14 7 33 3 17 -3 30
-4 27 -2 -21 18 -39 24 -62 21z"/>
<path d="M5194 544 c3 -9 6 -20 6 -25 0 -5 11 -9 25 -9 14 0 25 5 25 11 0 5
-5 7 -12 3 -8 -5 -9 0 -6 14 5 18 2 22 -19 22 -19 0 -24 -4 -19 -16z"/>
<path d="M5465 552 c-19 -13 -13 -27 10 -27 19 0 21 3 12 15 -6 8 -12 16 -12
17 0 1 -5 -1 -10 -5z"/>
<path d="M5516 545 c-4 -11 2 -15 26 -15 26 0 29 2 18 15 -7 8 -18 15 -25 15
-7 0 -15 -7 -19 -15z"/>
<path d="M4633 533 c-35 -2 -63 -7 -63 -12 0 -13 42 -131 47 -131 2 0 2 9 -2
19 -3 11 0 23 6 27 8 4 9 3 5 -4 -5 -8 0 -12 13 -12 11 0 23 5 26 10 4 6 11 8
16 5 5 -3 6 2 3 12 -5 17 -5 17 8 1 22 -26 69 -42 80 -26 4 7 8 8 8 3 0 -6 14
-16 32 -23 27 -10 33 -9 44 6 12 16 13 16 20 -3 10 -25 30 -46 62 -62 31 -16
33 -16 26 1 -9 22 14 29 34 10 16 -17 16 -18 -1 -11 -13 5 -17 3 -14 -5 2 -7
11 -12 21 -10 9 2 16 -3 16 -10 0 -17 44 -68 58 -68 6 0 18 -7 27 -16 11 -12
19 -13 28 -5 10 7 18 5 31 -11 15 -17 16 -22 5 -29 -8 -5 -9 -9 -4 -9 6 0 22
11 35 24 l25 23 11 -31 c6 -17 19 -33 30 -34 15 -3 17 -1 7 9 -7 7 -13 23 -13
35 0 13 -4 26 -10 29 -17 11 -11 25 11 25 13 0 20 -6 18 -17 -4 -36 11 -52 44
-47 18 2 33 8 35 14 2 6 10 16 17 23 10 9 9 16 -2 34 -10 15 -11 23 -4 23 6 0
11 5 11 10 0 6 -7 10 -15 10 -12 0 -13 -9 -8 -45 3 -28 2 -45 -5 -45 -5 0 -10
15 -11 32 0 28 -5 72 -10 87 0 3 -8 -4 -16 -15 -14 -19 -14 -18 -15 4 0 12 5
22 10 22 15 0 12 36 -4 49 -11 9 -15 7 -19 -9 -3 -11 -1 -20 5 -20 5 0 8 -6 5
-12 -2 -7 -11 -12 -21 -10 -9 2 -16 -2 -16 -8 0 -5 5 -10 10 -10 6 0 10 -5 10
-12 0 -7 -6 -6 -17 4 -28 24 -45 26 -82 12 -18 -8 -35 -14 -36 -14 -2 0 3 14
12 30 11 23 20 29 33 25 10 -3 21 -1 25 5 3 5 0 10 -7 10 -7 0 -25 14 -40 32
-25 30 -28 32 -52 19 -22 -12 -28 -12 -43 0 -12 10 -38 15 -80 13 -35 -1 -60
2 -58 6 7 11 -58 19 -75 9 -10 -5 -11 -8 -2 -9 6 0 12 -5 12 -12 0 -6 -10 -2
-22 9 -15 13 -39 21 -68 22 -25 1 -53 4 -62 7 -10 3 -18 1 -18 -5 0 -5 -10 -8
-22 -6 -63 12 -78 17 -72 26 8 13 94 11 294 -7 96 -8 193 -17 215 -19 22 -2
88 -4 148 -5 86 -2 107 -5 107 -17 0 -8 5 -11 10 -8 6 4 8 11 5 16 -12 18 25
9 45 -11 12 -12 25 -18 30 -15 15 9 12 25 -5 25 -8 0 -15 4 -15 8 0 5 50 15
110 22 61 7 110 17 110 22 0 12 -32 10 -145 -8 -100 -15 -301 -21 -372 -10
-21 3 -121 13 -223 21 -102 9 -194 17 -205 19 -11 1 -48 1 -82 -1z m488 -134
c8 -16 13 -18 19 -9 5 9 9 9 14 1 4 -6 -1 -14 -11 -18 -10 -4 -21 -11 -24 -16
-12 -17 -29 3 -29 34 0 34 15 38 31 8z m-10 -81 c11 -21 11 -22 -4 -9 -10 7
-17 17 -17 22 0 15 9 10 21 -13z m106 -10 c0 -7 4 -26 8 -42 7 -26 6 -28 -7
-16 -11 11 -17 49 -9 68 3 7 8 0 8 -10z m70 -28 c6 0 14 6 16 13 5 11 11 -28
10 -60 -1 -7 3 -10 8 -7 5 3 9 -2 9 -10 0 -18 -2 -19 -24 -10 -9 3 -13 10 -10
15 11 19 -7 49 -31 49 -26 0 -40 14 -30 31 5 7 13 5 24 -5 10 -9 22 -16 28
-16z"/>
<path d="M845 482 c-17 -10 -37 -19 -45 -20 -26 -1 -96 -31 -75 -32 11 0 45 9
75 21 30 12 65 23 78 26 12 3 22 9 22 14 0 14 -23 10 -55 -9z"/>
<path d="M5603 472 c-24 -2 -43 -7 -43 -12 0 -4 11 -7 25 -6 13 2 24 0 23 -3
-3 -27 3 -33 16 -16 13 18 13 18 24 -1 10 -17 11 -17 12 8 0 32 -3 34 -57 30z"/>
<path d="M5514 456 c-22 -17 -13 -30 27 -40 18 -4 31 -1 39 9 10 12 7 14 -20
10 -28 -3 -31 -1 -27 16 6 23 6 23 -19 5z"/>
<path d="M5220 441 c0 -12 29 -23 41 -15 5 3 7 10 4 15 -8 12 -45 12 -45 0z"/>
<path d="M655 420 l-20 -9 20 0 c11 0 27 4 35 9 13 9 13 10 0 9 -8 0 -24 -4
-35 -9z"/>
<path d="M552 393 c-24 -9 -41 -18 -38 -21 6 -5 116 27 116 34 0 7 -35 2 -78
-13z"/>
<path d="M5380 401 c0 -6 4 -13 10 -16 6 -3 7 1 4 9 -7 18 -14 21 -14 7z"/>
<path d="M5538 393 c7 -3 16 -2 19 1 4 3 -2 6 -13 5 -11 0 -14 -3 -6 -6z"/>
<path d="M5335 380 c-3 -5 -2 -10 4 -10 5 0 13 5 16 10 3 6 2 10 -4 10 -5 0
-13 -4 -16 -10z"/>
<path d="M450 360 c-12 -8 -11 -10 7 -10 12 0 25 5 28 10 8 13 -15 13 -35 0z"/>
<path d="M4754 355 c3 -8 1 -15 -4 -15 -16 0 -12 -20 10 -51 12 -16 27 -26 35
-23 13 5 35 -23 35 -46 0 -8 -6 -8 -20 0 -12 6 -18 16 -14 23 5 9 4 9 -6 0
-17 -16 3 -43 32 -43 18 0 19 5 14 62 -7 65 -20 92 -43 84 -8 -3 -12 -2 -9 3
3 5 -1 12 -10 15 -23 9 -27 8 -20 -9z"/>
<path d="M5389 359 c-8 -4 -8 -9 0 -14 7 -3 9 -15 6 -25 -3 -11 0 -20 10 -24
8 -3 15 -1 15 4 0 5 9 7 20 5 24 -5 25 1 4 22 -8 9 -13 21 -10 29 5 13 -25 16
-45 3z"/>
<path d="M5600 359 c0 -5 5 -7 10 -4 6 3 10 8 10 11 0 2 -4 4 -10 4 -5 0 -10
-5 -10 -11z"/>
<path d="M4720 344 c0 -8 5 -12 10 -9 6 4 8 11 5 16 -9 14 -15 11 -15 -7z"/>
<path d="M398 343 c7 -3 16 -2 19 1 4 3 -2 6 -13 5 -11 0 -14 -3 -6 -6z"/>
<path d="M5551 323 c8 -22 7 -30 -7 -40 -21 -16 -11 -43 16 -43 15 0 20 5 18
18 -1 9 1 23 5 30 5 6 4 12 -1 12 -6 0 -13 11 -16 25 -4 14 -11 25 -16 25 -6
0 -6 -10 1 -27z"/>
<path d="M225 330 c3 -5 11 -10 16 -10 6 0 7 5 4 10 -3 6 -11 10 -16 10 -6 0
-7 -4 -4 -10z"/>
<path d="M4855 262 c5 -44 18 -70 31 -65 8 3 12 8 9 13 -7 12 49 -2 57 -14 5
-7 8 -7 8 2 0 21 -40 72 -56 72 -19 0 -18 -16 2 -24 9 -4 15 -9 12 -11 -9 -9
-38 7 -38 20 0 7 -6 15 -13 18 -8 3 -13 -1 -12 -11z"/>
<path d="M4550 235 c7 -9 15 -13 17 -11 7 7 -7 26 -19 26 -6 0 -6 -6 2 -15z"/>
<path d="M5439 233 c-11 -13 -11 -15 -1 -9 9 5 19 1 28 -12 20 -28 60 -33 81
-10 10 11 13 19 8 18 -29 -6 -44 1 -39 18 5 15 4 14 -10 -2 -15 -18 -17 -18
-34 -2 -18 15 -20 15 -33 -1z"/>
<path d="M1980 236 c0 -2 8 -10 18 -17 15 -13 16 -12 3 4 -13 16 -21 21 -21
13z"/>
<path d="M4980 196 c0 -9 5 -16 10 -16 6 0 10 4 10 9 0 6 -4 13 -10 16 -5 3
-10 -1 -10 -9z"/>
<path d="M5449 186 c14 -15 21 -27 18 -27 -4 -1 -11 -3 -17 -4 -5 -1 -13 -3
-17 -4 -5 -1 -1 -6 7 -11 11 -7 11 -10 2 -10 -7 0 -10 -4 -7 -10 3 -5 -1 -10
-9 -10 -9 0 -16 6 -16 14 0 8 -4 17 -8 20 -5 3 -7 -14 -5 -37 5 -47 -6 -45
-16 4 -4 18 -13 35 -20 37 -10 3 -12 0 -8 -12 4 -10 1 -16 -8 -16 -8 0 -17 11
-21 25 -3 14 -10 25 -15 25 -13 0 -11 -28 3 -36 9 -6 5 -10 -12 -14 -18 -4
-29 -1 -38 12 -15 20 -47 24 -58 7 -4 -8 1 -9 16 -4 19 6 21 5 11 -13 -14 -26
-3 -33 43 -30 45 3 50 -4 48 -52 -3 -51 19 -54 62 -6 17 18 41 36 53 40 14 4
20 12 16 22 -3 7 -1 14 4 14 6 0 15 12 21 26 9 19 17 24 32 19 15 -5 18 -3 14
9 -4 10 -18 16 -35 16 -16 0 -29 4 -29 9 0 5 -8 12 -17 15 -13 5 -11 0 6 -18z"/>
<path d="M5206 185 c-3 -9 0 -15 9 -15 8 0 15 7 15 15 0 8 -4 15 -9 15 -5 0
-11 -7 -15 -15z"/>
<path d="M4932 165 c15 -14 33 -25 41 -25 9 0 14 -11 15 -30 0 -16 -4 -30 -9
-30 -5 0 -9 -5 -9 -11 0 -5 5 -7 10 -4 6 3 10 1 10 -4 0 -6 6 -11 14 -11 8 0
17 -8 21 -17 6 -17 7 -17 19 0 18 24 28 21 24 -5 -3 -22 1 -23 55 -23 31 0 57
3 57 7 0 5 -9 8 -20 8 -11 0 -20 5 -20 12 0 9 -3 9 -12 0 -17 -17 -33 -15 -18
3 9 10 9 15 1 15 -6 0 -11 7 -11 15 0 9 6 12 15 9 8 -4 15 -1 15 5 0 6 -10 11
-21 11 -16 0 -20 5 -16 20 3 11 1 17 -4 14 -12 -7 -39 21 -39 41 0 9 -4 13
-10 10 -14 -9 -12 -42 3 -48 8 -4 6 -6 -4 -6 -12 -1 -15 -8 -11 -26 2 -14 9
-22 14 -18 6 3 9 0 7 -6 -14 -42 -51 17 -38 61 7 27 6 29 -15 26 -12 -1 -34 5
-49 15 -38 25 -46 21 -15 -8z"/>
<path d="M4540 171 c0 -7 7 -19 15 -27 19 -20 19 -5 0 20 -9 11 -15 14 -15 7z"/>
<path d="M5140 171 c0 -6 4 -13 10 -16 6 -3 7 1 4 9 -7 18 -14 21 -14 7z"/>
<path d="M4887 125 c-4 -8 -1 -17 5 -21 7 -4 8 -3 4 4 -4 7 -2 12 3 12 6 0 11
5 11 10 0 15 -17 12 -23 -5z"/>
<path d="M4851 104 c0 -11 3 -14 6 -6 3 7 2 16 -1 19 -3 4 -6 -2 -5 -13z"/>
<path d="M4539 72 c12 -22 41 -48 41 -36 -1 11 -36 54 -44 54 -4 0 -2 -8 3
-18z"/>
<path d="M4850 76 c0 -2 7 -9 15 -16 9 -7 15 -8 15 -2 0 5 -7 12 -15 16 -8 3
-15 4 -15 2z"/>
<path d="M4919 66 c8 -9 20 -16 27 -16 7 0 11 -6 8 -13 -3 -8 -11 -14 -19 -14
-8 0 -16 6 -19 14 -3 7 -10 13 -16 13 -6 0 -3 -11 6 -26 17 -26 54 -31 82 -11
8 6 12 5 12 -4 0 -10 3 -10 12 -1 10 10 10 15 -2 22 -9 6 -18 3 -28 -8 -12
-16 -13 -15 -9 4 3 17 -3 25 -31 38 -31 15 -34 15 -23 2z"/>
<path d="M5150 69 c0 -5 5 -7 10 -4 6 3 10 8 10 11 0 2 -4 4 -10 4 -5 0 -10
-5 -10 -11z"/>
<path d="M5230 52 c1 -29 27 -54 52 -50 23 4 23 5 -4 16 -27 11 -41 36 -15 26
7 -2 21 2 32 10 17 12 15 14 -23 14 -33 1 -42 -3 -42 -16z"/>
<path d="M5448 54 c-4 -5 0 -18 8 -29 15 -20 17 -12 5 19 -4 11 -10 15 -13 10z"/>
<path d="M4507 36 c-4 -10 2 -20 14 -27 19 -10 20 -9 8 13 -16 31 -16 31 -22
14z"/>
<path d="M4605 19 c-4 -6 -5 -12 -2 -15 2 -3 7 2 10 11 7 17 1 20 -8 4z"/>
</g>
</svg>
